<?xml version="1.0" encoding="UTF-8" standalone="no"?><svg xmlns="http://www.w3.org/2000/svg" xmlns:xlink="http://www.w3.org/1999/xlink" contentScriptType="application/ecmascript" contentStyleType="text/css" height="295px" preserveAspectRatio="none" style="width:497px;height:295px;" version="1.1" viewBox="0 0 497 295" width="497px" zoomAndPan="magnify"><defs><filter height="300%" id="f3f3r1v1on2s" width="300%" x="-1" y="-1"><feGaussianBlur result="blurOut" stdDeviation="2.0"/><feColorMatrix in="blurOut" result="blurOut2" type="matrix" values="0 0 0 0 0 0 0 0 0 0 0 0 0 0 0 0 0 0 .4 0"/><feOffset dx="4.0" dy="4.0" in="blurOut2" result="blurOut3"/><feBlend in="SourceGraphic" in2="blurOut3" mode="normal"/></filter></defs><g><text fill="#000000" font-family="sans-serif" font-size="18" lengthAdjust="spacingAndGlyphs" textLength="75" x="214.5" y="16.708">TNTMan</text><!--MD5=[9182718140f5de903b1d6ea78932bda8]
cluster alive--><rect fill="#FEFECE" filter="url(#f3f3r1v1on2s)" height="203" rx="12.5" ry="12.5" style="stroke: #A80036; stroke-width: 1.5;" width="408" x="14" y="81.9531"/><rect fill="#FFFFFF" height="170.7031" rx="12.5" ry="12.5" style="stroke: #FFFFFF; stroke-width: 1.0;" width="402" x="17" y="111.25"/><line style="stroke: #A80036; stroke-width: 1.5;" x1="14" x2="422" y1="108.25" y2="108.25"/><text fill="#000000" font-family="sans-serif" font-size="14" lengthAdjust="spacingAndGlyphs" textLength="30" x="203" y="98.9482">alive</text><!--MD5=[02b621e9394479cde8940db764731618]
cluster buffed--><rect fill="#FEFECE" filter="url(#f3f3r1v1on2s)" height="85" rx="12.5" ry="12.5" style="stroke: #A80036; stroke-width: 1.5;" width="283" x="131" y="191.9531"/><rect fill="#FFFFFF" height="52.7031" rx="12.5" ry="12.5" style="stroke: #FFFFFF; stroke-width: 1.0;" width="277" x="134" y="221.25"/><line style="stroke: #A80036; stroke-width: 1.5;" x1="131" x2="414" y1="218.25" y2="218.25"/><text fill="#000000" font-family="sans-serif" font-size="14" lengthAdjust="spacingAndGlyphs" textLength="44" x="250.5" y="208.9482">buffed</text><rect fill="#FEFECE" filter="url(#f3f3r1v1on2s)" height="50" rx="12.5" ry="12.5" style="stroke: #A80036; stroke-width: 1.5;" width="78" x="296" y="108.9531"/><line style="stroke: #A80036; stroke-width: 1.5;" x1="296" x2="374" y1="135.25" y2="135.25"/><text fill="#000000" font-family="sans-serif" font-size="14" lengthAdjust="spacingAndGlyphs" textLength="58" x="306" y="126.9482">stopped</text><rect fill="#FEFECE" filter="url(#f3f3r1v1on2s)" height="50" rx="12.5" ry="12.5" style="stroke: #A80036; stroke-width: 1.5;" width="70" x="191" y="108.9531"/><line style="stroke: #A80036; stroke-width: 1.5;" x1="191" x2="261" y1="135.25" y2="135.25"/><text fill="#000000" font-family="sans-serif" font-size="14" lengthAdjust="spacingAndGlyphs" textLength="50" x="201" y="126.9482">moving</text><rect fill="#FEFECE" filter="url(#f3f3r1v1on2s)" height="50" rx="12.5" ry="12.5" style="stroke: #A80036; stroke-width: 1.5;" width="82" x="22" y="218.9531"/><line style="stroke: #A80036; stroke-width: 1.5;" x1="22" x2="104" y1="245.25" y2="245.25"/><text fill="#000000" font-family="sans-serif" font-size="14" lengthAdjust="spacingAndGlyphs" textLength="62" x="32" y="236.9482">unbuffed</text><rect fill="#FEFECE" filter="url(#f3f3r1v1on2s)" height="50" rx="12.5" ry="12.5" style="stroke: #A80036; stroke-width: 1.5;" width="113" x="257.5" y="218.9531"/><line style="stroke: #A80036; stroke-width: 1.5;" x1="257.5" x2="370.5" y1="245.25" y2="245.25"/><text fill="#000000" font-family="sans-serif" font-size="14" lengthAdjust="spacingAndGlyphs" textLength="93" x="267.5" y="236.9482">movingFaster</text><rect fill="#FEFECE" filter="url(#f3f3r1v1on2s)" height="50" rx="12.5" ry="12.5" style="stroke: #A80036; stroke-width: 1.5;" width="83" x="139.5" y="218.9531"/><line style="stroke: #A80036; stroke-width: 1.5;" x1="139.5" x2="222.5" y1="245.25" y2="245.25"/><text fill="#000000" font-family="sans-serif" font-size="14" lengthAdjust="spacingAndGlyphs" textLength="63" x="149.5" y="236.9482">invincible</text><ellipse cx="156" cy="38.9531" fill="#000000" filter="url(#f3f3r1v1on2s)" rx="10" ry="10" style="stroke: none; stroke-width: 1.0;"/><rect fill="#FEFECE" filter="url(#f3f3r1v1on2s)" height="50" rx="12.5" ry="12.5" style="stroke: #A80036; stroke-width: 1.5;" width="55" x="430.5" y="108.9531"/><line style="stroke: #A80036; stroke-width: 1.5;" x1="430.5" x2="485.5" y1="135.25" y2="135.25"/><text fill="#000000" font-family="sans-serif" font-size="14" lengthAdjust="spacingAndGlyphs" textLength="35" x="440.5" y="126.9482">dead</text><ellipse cx="458" cy="243.9531" fill="none" filter="url(#f3f3r1v1on2s)" rx="10" ry="10" style="stroke: #000000; stroke-width: 1.0;"/><ellipse cx="458.5" cy="244.4531" fill="#000000" rx="6" ry="6" style="stroke: none; stroke-width: 1.0;"/><!--MD5=[306d9c36db14c4680e381f5224a8b76d]
link *start to alive--><path d="M156,49.1198 C156,54.9595 156,62.8328 156,71.4391 C156,73.5907 156,75.7881 156,78.011 C156,79.1224 156,80.2402 156,81.3618 C156,81.502 156,81.6423 156,81.7826 " fill="none" id="*start-&gt;alive" style="stroke: #A80036; stroke-width: 1.0;"/><polygon fill="#A80036" points="156,81.7826,160,72.7826,156,76.7826,152,72.7826,156,81.7826" style="stroke: #A80036; stroke-width: 1.0;"/><!--MD5=[df010d3c6d2718ffe484791c74787ca8]
link stopped to moving--><path d="M295.868,151.2122 C286.0671,153.1138 276.2661,153.1963 266.4651,151.4597 " fill="none" id="stopped-&gt;moving" style="stroke: #A80036; stroke-width: 1.0;"/><polygon fill="#A80036" points="261.3398,150.3857,269.328,156.1467,266.2335,151.4113,270.9689,148.3168,261.3398,150.3857" style="stroke: #A80036; stroke-width: 1.0;"/><!--MD5=[d9a0e7ff228cb87c22e1bc97003e4c9e]
link moving to stopped--><path d="M261.3398,117.5205 C271.1408,115.1497 280.9418,114.5979 290.7428,115.8654 " fill="none" id="moving-&gt;stopped" style="stroke: #A80036; stroke-width: 1.0;"/><polygon fill="#A80036" points="295.868,116.694,287.6219,111.3087,290.9321,115.8959,286.3449,119.2061,295.868,116.694" style="stroke: #A80036; stroke-width: 1.0;"/><!--MD5=[e80ef3c45850beba11db4770abe2a429]
link buffed to unbuffed--><path d="M389.6467,191.7216 C389.5765,191.6184 389.506,191.5156 389.4352,191.4129 C389.152,191.0024 388.8641,190.5959 388.5714,190.1936 C383.8876,183.7577 377.9694,178.4192 370.5,175.4531 C322.997,156.59 188.3001,157.3563 140.5,175.4531 C119.4446,183.4245 100.4243,200.0178 86.4959,214.8759 " fill="none" id="buffed-&gt;unbuffed" style="stroke: #A80036; stroke-width: 1.0;"/><polygon fill="#A80036" points="83.0664,218.6098,92.1005,214.6875,86.4488,214.9275,86.2088,209.2757,83.0664,218.6098" style="stroke: #A80036; stroke-width: 1.0;"/><!--MD5=[11e09a342b32121b3ddf0ee9c92fbf75]
link unbuffed to buffed--><path d="M83.0664,218.6098 C97.2152,202.8921 117.6602,184.1001 140.5,175.4531 C188.3001,157.3563 322.997,156.59 370.5,175.4531 C377.9694,178.4192 383.8876,183.7577 388.5714,190.1936 C388.8641,190.5959 389.152,191.0024 389.4352,191.4129 C389.506,191.5156 389.5765,191.6184 389.6467,191.7216 " fill="none" id="unbuffed-&gt;buffed" style="stroke: #A80036; stroke-width: 1.0;"/><polygon fill="#A80036" points="389.6467,191.7216,387.8885,182.0309,386.8329,187.5884,381.2754,186.5329,389.6467,191.7216" style="stroke: #A80036; stroke-width: 1.0;"/><!--MD5=[8b032b0ffc7fceeff40506f6bc9c9069]
link stopped to movingFaster--><path d="M341.744,159.1893 C340.9964,175.3995 337.1748,196.5457 331.9908,213.6618 " fill="none" id="stopped-&gt;movingFaster" style="stroke: #A80036; stroke-width: 1.0;"/><polygon fill="#A80036" points="330.3402,218.8343,336.8871,211.4764,331.8603,214.071,329.2657,209.0443,330.3402,218.8343" style="stroke: #A80036; stroke-width: 1.0;"/><!--MD5=[abc02b06b606980bc483e3717315e017]
link movingFaster to stopped--><path d="M307.892,218.8343 C308.7557,202.6481 312.5791,181.504 317.6506,164.3686 " fill="none" id="movingFaster-&gt;stopped" style="stroke: #A80036; stroke-width: 1.0;"/><polygon fill="#A80036" points="319.2627,159.1893,312.7687,166.5939,317.7767,163.9634,320.4072,168.9715,319.2627,159.1893" style="stroke: #A80036; stroke-width: 1.0;"/><!--MD5=[a0e37fc86aa6b92527fc372364830a4e]
link alive to dead--><path d="M171.5922,81.69 C171.6609,81.5869 171.7299,81.4841 171.7992,81.3815 C172.0763,80.9712 172.3583,80.5649 172.6452,80.1629 C177.2348,73.7309 183.0747,68.4017 190.5,65.4531 C235.5245,47.5742 363.4755,47.5742 408.5,65.4531 C425.6779,72.2743 437.9359,88.9684 445.9565,104.1675 " fill="none" id="alive-&gt;dead" style="stroke: #A80036; stroke-width: 1.0;"/><polygon fill="#A80036" points="448.3104,108.8239,447.8199,98.9873,446.0547,104.3617,440.6803,102.5964,448.3104,108.8239" style="stroke: #A80036; stroke-width: 1.0;"/><!--MD5=[7dc855e9b8806ec02b1d5d579b886a39]
link dead to *end--><path d="M458,159.1893 C458,180.5729 458,210.5461 458,228.5264 " fill="none" id="dead-&gt;*end" style="stroke: #A80036; stroke-width: 1.0;"/><polygon fill="#A80036" points="458,233.6987,462,224.6987,458,228.6987,454,224.6987,458,233.6987" style="stroke: #A80036; stroke-width: 1.0;"/><!--MD5=[b0eae94a02e6a8c126fd414f3517b373]
@startuml
title TNTMan 
[*] - -> alive
state alive {
stopped -> moving
moving -> stopped

buffed -> unbuffed
unbuffed -> buffed

state buffed{
stopped - -> movingFaster
state invincible
}
movingFaster -> stopped

}
alive -> dead

dead - -> [*]
@enduml

PlantUML version 1.2019.10(Fri Sep 13 20:53:03 UTC 2019)
(GPL source distribution)
Java Runtime: OpenJDK Runtime Environment
JVM: OpenJDK 64-Bit Server VM
Java Version: 1.8.0_222-heroku-b10
Operating System: Linux
Default Encoding: UTF-8
Language: en
Country: US
--></g></svg>