<?xml version="1.0" encoding="UTF-8" standalone="no"?><svg xmlns="http://www.w3.org/2000/svg" xmlns:xlink="http://www.w3.org/1999/xlink" contentScriptType="application/ecmascript" contentStyleType="text/css" height="200px" preserveAspectRatio="none" style="width:222px;height:200px;" version="1.1" viewBox="0 0 222 200" width="222px" zoomAndPan="magnify"><defs><filter height="300%" id="frq85mq0k0ppj" width="300%" x="-1" y="-1"><feGaussianBlur result="blurOut" stdDeviation="2.0"/><feColorMatrix in="blurOut" result="blurOut2" type="matrix" values="0 0 0 0 0 0 0 0 0 0 0 0 0 0 0 0 0 0 .4 0"/><feOffset dx="4.0" dy="4.0" in="blurOut2" result="blurOut3"/><feBlend in="SourceGraphic" in2="blurOut3" mode="normal"/></filter></defs><g><text fill="#000000" font-family="sans-serif" font-size="18" lengthAdjust="spacingAndGlyphs" textLength="74" x="77.5" y="16.708">Enemies</text><rect fill="#FEFECE" filter="url(#frq85mq0k0ppj)" height="50" rx="12.5" ry="12.5" style="stroke: #A80036; stroke-width: 1.5;" width="55" x="155.5" y="83.9531"/><line style="stroke: #A80036; stroke-width: 1.5;" x1="155.5" x2="210.5" y1="110.25" y2="110.25"/><text fill="#000000" font-family="sans-serif" font-size="14" lengthAdjust="spacingAndGlyphs" textLength="35" x="165.5" y="101.9482">dead</text><rect fill="#FEFECE" filter="url(#frq85mq0k0ppj)" height="160.2969" rx="12.5" ry="12.5" style="stroke: #A80036; stroke-width: 1.5;" width="114" x="6" y="28.9531"/><rect fill="#FFFFFF" height="128" rx="12.5" ry="12.5" style="stroke: #FFFFFF; stroke-width: 1.0;" width="108" x="9" y="58.25"/><line style="stroke: #A80036; stroke-width: 1.5;" x1="6" x2="120" y1="55.25" y2="55.25"/><text fill="#000000" font-family="sans-serif" font-size="14" lengthAdjust="spacingAndGlyphs" textLength="30" x="48" y="46.9482">alive</text><ellipse cx="52" cy="78.25" fill="#000000" filter="url(#frq85mq0k0ppj)" rx="10" ry="10" style="stroke: none; stroke-width: 1.0;"/><rect fill="#FEFECE" filter="url(#frq85mq0k0ppj)" height="50" rx="12.5" ry="12.5" style="stroke: #A80036; stroke-width: 1.5;" width="70" x="17" y="124.25"/><line style="stroke: #A80036; stroke-width: 1.5;" x1="17" x2="87" y1="150.5469" y2="150.5469"/><text fill="#000000" font-family="sans-serif" font-size="14" lengthAdjust="spacingAndGlyphs" textLength="50" x="27" y="142.2451">moving</text><!--MD5=[6742dba4e104009af3031a4e4d845ec9]
link *start*alive to moving--><path d="M52,88.4226 C52,96.3969 52,107.929 52,118.8128 " fill="none" id="*start*alive-&gt;moving" style="stroke: #A80036; stroke-width: 1.0;"/><polygon fill="#A80036" points="52,124.0853,56,115.0853,52,119.0853,48,115.0853,52,124.0853" style="stroke: #A80036; stroke-width: 1.0;"/><!--MD5=[a0e37fc86aa6b92527fc372364830a4e]
link alive to dead--><path d="M120.1875,108.9531 C130.0774,108.9531 139.9672,108.9531 149.8571,108.9531 " fill="none" id="alive-&gt;dead" style="stroke: #A80036; stroke-width: 1.0;"/><polygon fill="#A80036" points="155.0288,108.9531,146.0288,104.9531,150.0288,108.9531,146.0288,112.9531,155.0288,108.9531" style="stroke: #A80036; stroke-width: 1.0;"/><!--MD5=[7f50ca31bccac57a4fe147c00250401b]
@startuml
title Enemies 
state alive {
[*] - -> moving
}
alive -> dead
@enduml

PlantUML version 1.2019.10(Fri Sep 13 20:53:03 UTC 2019)
(GPL source distribution)
Java Runtime: OpenJDK Runtime Environment
JVM: OpenJDK 64-Bit Server VM
Java Version: 1.8.0_222-heroku-b10
Operating System: Linux
Default Encoding: UTF-8
Language: en
Country: US
--></g></svg>