<?xml version="1.0" encoding="UTF-8" standalone="no"?><svg xmlns="http://www.w3.org/2000/svg" xmlns:xlink="http://www.w3.org/1999/xlink" contentScriptType="application/ecmascript" contentStyleType="text/css" height="278px" preserveAspectRatio="none" style="width:923px;height:278px;" version="1.1" viewBox="0 0 923 278" width="923px" zoomAndPan="magnify"><defs><filter height="300%" id="fqxghrxgnc1xb" width="300%" x="-1" y="-1"><feGaussianBlur result="blurOut" stdDeviation="2.0"/><feColorMatrix in="blurOut" result="blurOut2" type="matrix" values="0 0 0 0 0 0 0 0 0 0 0 0 0 0 0 0 0 0 .4 0"/><feOffset dx="4.0" dy="4.0" in="blurOut2" result="blurOut3"/><feBlend in="SourceGraphic" in2="blurOut3" mode="normal"/></filter></defs><g><text fill="#000000" font-family="sans-serif" font-size="18" lengthAdjust="spacingAndGlyphs" textLength="51" x="439" y="16.708">Bomb</text><ellipse cx="399" cy="38.9531" fill="#000000" filter="url(#fqxghrxgnc1xb)" rx="10" ry="10" style="stroke: none; stroke-width: 1.0;"/><rect fill="#FEFECE" filter="url(#fqxghrxgnc1xb)" height="50" rx="12.5" ry="12.5" style="stroke: #A80036; stroke-width: 1.5;" width="84" x="827" y="162.9531"/><line style="stroke: #A80036; stroke-width: 1.5;" x1="827" x2="911" y1="189.25" y2="189.25"/><text fill="#000000" font-family="sans-serif" font-size="14" lengthAdjust="spacingAndGlyphs" textLength="64" x="837" y="180.9482">exploded</text><rect fill="#FEFECE" filter="url(#fqxghrxgnc1xb)" height="158.2969" rx="12.5" ry="12.5" style="stroke: #A80036; stroke-width: 1.5;" width="786" x="6" y="108.9531"/><rect fill="#FFFFFF" height="126" rx="12.5" ry="12.5" style="stroke: #FFFFFF; stroke-width: 1.0;" width="780" x="9" y="138.25"/><line style="stroke: #A80036; stroke-width: 1.5;" x1="6" x2="792" y1="135.25" y2="135.25"/><text fill="#000000" font-family="sans-serif" font-size="14" lengthAdjust="spacingAndGlyphs" textLength="64" x="367" y="126.9482">deployed</text><rect fill="#FEFECE" filter="url(#fqxghrxgnc1xb)" height="50" rx="12.5" ry="12.5" style="stroke: #A80036; stroke-width: 1.5;" width="50" x="17" y="175.25"/><line style="stroke: #A80036; stroke-width: 1.5;" x1="17" x2="67" y1="201.5469" y2="201.5469"/><text fill="#000000" font-family="sans-serif" font-size="14" lengthAdjust="spacingAndGlyphs" textLength="24" x="30" y="193.2451">idle</text><rect fill="#FEFECE" filter="url(#fqxghrxgnc1xb)" height="50" rx="12.5" ry="12.5" style="stroke: #A80036; stroke-width: 1.5;" width="88" x="85" y="175.25"/><line style="stroke: #A80036; stroke-width: 1.5;" x1="85" x2="173" y1="201.5469" y2="201.5469"/><text fill="#000000" font-family="sans-serif" font-size="14" lengthAdjust="spacingAndGlyphs" textLength="68" x="95" y="193.2451">notBuffed</text><rect fill="#FEFECE" filter="url(#fqxghrxgnc1xb)" height="104.2969" rx="12.5" ry="12.5" style="stroke: #A80036; stroke-width: 1.5;" width="568" x="191" y="148.25"/><rect fill="#FFFFFF" height="72" rx="12.5" ry="12.5" style="stroke: #FFFFFF; stroke-width: 1.0;" width="562" x="194" y="177.5469"/><line style="stroke: #A80036; stroke-width: 1.5;" x1="191" x2="759" y1="174.5469" y2="174.5469"/><text fill="#000000" font-family="sans-serif" font-size="14" lengthAdjust="spacingAndGlyphs" textLength="44" x="453" y="166.2451">buffed</text><rect fill="#FEFECE" filter="url(#fqxghrxgnc1xb)" height="50" rx="12.5" ry="12.5" style="stroke: #A80036; stroke-width: 1.5;" width="144" x="202" y="187.5469"/><line style="stroke: #A80036; stroke-width: 1.5;" x1="202" x2="346" y1="213.8438" y2="213.8438"/><text fill="#000000" font-family="sans-serif" font-size="14" lengthAdjust="spacingAndGlyphs" textLength="124" x="212" y="205.542">damageUpgraded</text><rect fill="#FEFECE" filter="url(#fqxghrxgnc1xb)" height="50" rx="12.5" ry="12.5" style="stroke: #A80036; stroke-width: 1.5;" width="128" x="364" y="187.5469"/><line style="stroke: #A80036; stroke-width: 1.5;" x1="364" x2="492" y1="213.8438" y2="213.8438"/><text fill="#000000" font-family="sans-serif" font-size="14" lengthAdjust="spacingAndGlyphs" textLength="108" x="374" y="205.542">rangeUpgraded</text><rect fill="#FEFECE" filter="url(#fqxghrxgnc1xb)" height="50" rx="12.5" ry="12.5" style="stroke: #A80036; stroke-width: 1.5;" width="216" x="510" y="187.5469"/><line style="stroke: #A80036; stroke-width: 1.5;" x1="510" x2="726" y1="213.8438" y2="213.8438"/><text fill="#000000" font-family="sans-serif" font-size="14" lengthAdjust="spacingAndGlyphs" textLength="196" x="520" y="205.542">damageAndRangeUpgraded</text><!--MD5=[0d122bf14c7da7b5c6a29b008e9ad7af]
link *start to deployed--><path d="M399,49.1945 C399,61.003 399,81.6013 399,103.3696 " fill="none" id="*start-&gt;deployed" style="stroke: #A80036; stroke-width: 1.0;"/><polygon fill="#A80036" points="399,108.6237,403,99.6237,399,103.6237,395,99.6237,399,108.6237" style="stroke: #A80036; stroke-width: 1.0;"/><!--MD5=[27799feefe3fc6f8c6da1ba4fca968fc]
link deployed to exploded--><path d="M792.3496,187.9531 C802.1235,187.9531 811.8974,187.9531 821.6713,187.9531 " fill="none" id="deployed-&gt;exploded" style="stroke: #A80036; stroke-width: 1.0;"/><polygon fill="#A80036" points="826.7824,187.9531,817.7824,183.9531,821.7824,187.9531,817.7824,191.9531,826.7824,187.9531" style="stroke: #A80036; stroke-width: 1.0;"/><!--MD5=[00b115d4768d3953646a8fe650709a84]
@startuml
title Bomb
[*] - -> deployed 
state deployed {
  state idle
  state buffed {
    state damageUpgraded
    state rangeUpgraded
    state damageAndRangeUpgraded
  }
  state notBuffed
}
deployed -> exploded
@enduml

PlantUML version 1.2019.10(Fri Sep 13 20:53:03 UTC 2019)
(GPL source distribution)
Java Runtime: OpenJDK Runtime Environment
JVM: OpenJDK 64-Bit Server VM
Java Version: 1.8.0_222-heroku-b10
Operating System: Linux
Default Encoding: UTF-8
Language: en
Country: US
--></g></svg>