<?xml version="1.0" encoding="UTF-8" standalone="no"?><svg xmlns="http://www.w3.org/2000/svg" xmlns:xlink="http://www.w3.org/1999/xlink" contentScriptType="application/ecmascript" contentStyleType="text/css" height="917px" preserveAspectRatio="none" style="width:1469px;height:917px;" version="1.1" viewBox="0 0 1469 917" width="1469px" zoomAndPan="magnify"><defs><filter height="300%" id="f13txnjxvvjosv" width="300%" x="-1" y="-1"><feGaussianBlur result="blurOut" stdDeviation="2.0"/><feColorMatrix in="blurOut" result="blurOut2" type="matrix" values="0 0 0 0 0 0 0 0 0 0 0 0 0 0 0 0 0 0 .4 0"/><feOffset dx="4.0" dy="4.0" in="blurOut2" result="blurOut3"/><feBlend in="SourceGraphic" in2="blurOut3" mode="normal"/></filter></defs><g><ellipse cx="738.5" cy="20" fill="#000000" filter="url(#f13txnjxvvjosv)" rx="10" ry="10" style="stroke: none; stroke-width: 1.0;"/><rect fill="#FEFECE" filter="url(#f13txnjxvvjosv)" height="33.9688" rx="12.5" ry="12.5" style="stroke: #A80036; stroke-width: 1.5;" width="78" x="699.5" y="50"/><text fill="#000000" font-family="sans-serif" font-size="12" lengthAdjust="spacingAndGlyphs" textLength="58" x="709.5" y="71.1387">clickStart</text><rect fill="#FEFECE" filter="url(#f13txnjxvvjosv)" height="33.9688" rx="12.5" ry="12.5" style="stroke: #A80036; stroke-width: 1.5;" width="122" x="677.5" y="103.9688"/><text fill="#000000" font-family="sans-serif" font-size="12" lengthAdjust="spacingAndGlyphs" textLength="102" x="687.5" y="125.1074">spawnCharacter</text><rect fill="#FEFECE" filter="url(#f13txnjxvvjosv)" height="33.9688" rx="12.5" ry="12.5" style="stroke: #A80036; stroke-width: 1.5;" width="53" x="712" y="218.7422"/><text fill="#000000" font-family="sans-serif" font-size="12" lengthAdjust="spacingAndGlyphs" textLength="33" x="722" y="239.8809">move</text><rect fill="#FEFECE" filter="url(#f13txnjxvvjosv)" height="33.9688" rx="12.5" ry="12.5" style="stroke: #A80036; stroke-width: 1.5;" width="110" x="683.5" y="272.7109"/><text fill="#000000" font-family="sans-serif" font-size="12" lengthAdjust="spacingAndGlyphs" textLength="90" x="693.5" y="293.8496">findSomething</text><rect fill="#000000" filter="url(#f13txnjxvvjosv)" height="6" rx="2.5" ry="2.5" style="stroke: #000000; stroke-width: 1.0;" width="1386" x="45" y="326.6797"/><rect fill="#FEFECE" filter="url(#f13txnjxvvjosv)" height="33.9688" rx="12.5" ry="12.5" style="stroke: #A80036; stroke-width: 1.5;" width="44" x="300" y="433.082"/><text fill="#000000" font-family="sans-serif" font-size="12" lengthAdjust="spacingAndGlyphs" textLength="24" x="310" y="454.2207">buff</text><polygon fill="#FEFECE" filter="url(#f13txnjxvvjosv)" points="69,527.0508,135,527.0508,147,539.0508,135,551.0508,69,551.0508,57,539.0508,69,527.0508" style="stroke: #A80036; stroke-width: 1.5;"/><text fill="#000000" font-family="sans-serif" font-size="11" lengthAdjust="spacingAndGlyphs" textLength="20" x="106" y="561.2612">yes</text><text fill="#000000" font-family="sans-serif" font-size="11" lengthAdjust="spacingAndGlyphs" textLength="66" x="69" y="542.8589">moreSpeed</text><rect fill="#FEFECE" filter="url(#f13txnjxvvjosv)" height="33.9688" rx="12.5" ry="12.5" style="stroke: #A80036; stroke-width: 1.5;" width="84" x="60" y="583.8555"/><text fill="#000000" font-family="sans-serif" font-size="12" lengthAdjust="spacingAndGlyphs" textLength="64" x="70" y="604.9941">addSpeed</text><polygon fill="#FEFECE" filter="url(#f13txnjxvvjosv)" points="179,527.0508,257,527.0508,269,539.0508,257,551.0508,179,551.0508,167,539.0508,179,527.0508" style="stroke: #A80036; stroke-width: 1.5;"/><text fill="#000000" font-family="sans-serif" font-size="11" lengthAdjust="spacingAndGlyphs" textLength="20" x="222" y="561.2612">yes</text><text fill="#000000" font-family="sans-serif" font-size="11" lengthAdjust="spacingAndGlyphs" textLength="78" x="179" y="542.8589">invulnerability</text><rect fill="#FEFECE" filter="url(#f13txnjxvvjosv)" height="33.9688" rx="12.5" ry="12.5" style="stroke: #A80036; stroke-width: 1.5;" width="112" x="162" y="583.8555"/><text fill="#000000" font-family="sans-serif" font-size="12" lengthAdjust="spacingAndGlyphs" textLength="92" x="172" y="604.9941">beInvulnerable</text><polygon fill="#FEFECE" filter="url(#f13txnjxvvjosv)" points="306,527.0508,402,527.0508,414,539.0508,402,551.0508,306,551.0508,294,539.0508,306,527.0508" style="stroke: #A80036; stroke-width: 1.5;"/><text fill="#000000" font-family="sans-serif" font-size="11" lengthAdjust="spacingAndGlyphs" textLength="20" x="358" y="561.2612">yes</text><text fill="#000000" font-family="sans-serif" font-size="11" lengthAdjust="spacingAndGlyphs" textLength="96" x="306" y="542.8589">moreDetDamage</text><rect fill="#FEFECE" filter="url(#f13txnjxvvjosv)" height="33.9688" rx="12.5" ry="12.5" style="stroke: #A80036; stroke-width: 1.5;" width="94" x="307" y="583.8555"/><text fill="#000000" font-family="sans-serif" font-size="12" lengthAdjust="spacingAndGlyphs" textLength="74" x="317" y="604.9941">addDetDmg</text><polygon fill="#FEFECE" filter="url(#f13txnjxvvjosv)" points="446,527.0508,530,527.0508,542,539.0508,530,551.0508,446,551.0508,434,539.0508,446,527.0508" style="stroke: #A80036; stroke-width: 1.5;"/><text fill="#000000" font-family="sans-serif" font-size="11" lengthAdjust="spacingAndGlyphs" textLength="20" x="492" y="561.2612">yes</text><text fill="#000000" font-family="sans-serif" font-size="11" lengthAdjust="spacingAndGlyphs" textLength="84" x="446" y="542.8589">moreDetRange</text><rect fill="#FEFECE" filter="url(#f13txnjxvvjosv)" height="33.9688" rx="12.5" ry="12.5" style="stroke: #A80036; stroke-width: 1.5;" width="106" x="435" y="583.8555"/><text fill="#000000" font-family="sans-serif" font-size="12" lengthAdjust="spacingAndGlyphs" textLength="86" x="445" y="604.9941">addDetRange</text><rect fill="#FEFECE" filter="url(#f13txnjxvvjosv)" height="33.9688" rx="12.5" ry="12.5" style="stroke: #A80036; stroke-width: 1.5;" width="74" x="694" y="396.5977"/><text fill="#000000" font-family="sans-serif" font-size="12" lengthAdjust="spacingAndGlyphs" textLength="54" x="704" y="417.7363">obstacle</text><polygon fill="#FEFECE" filter="url(#f13txnjxvvjosv)" points="712,465.5664,750,465.5664,762,477.5664,750,489.5664,712,489.5664,700,477.5664,712,465.5664" style="stroke: #A80036; stroke-width: 1.5;"/><text fill="#000000" font-family="sans-serif" font-size="11" lengthAdjust="spacingAndGlyphs" textLength="38" x="712" y="481.3745">break?</text><text fill="#000000" font-family="sans-serif" font-size="11" lengthAdjust="spacingAndGlyphs" textLength="20" x="680" y="474.9722">yes</text><text fill="#000000" font-family="sans-serif" font-size="11" lengthAdjust="spacingAndGlyphs" textLength="14" x="762" y="474.9722">no</text><rect fill="#FEFECE" filter="url(#f13txnjxvvjosv)" height="33.9688" rx="12.5" ry="12.5" style="stroke: #A80036; stroke-width: 1.5;" width="76" x="593.5" y="499.5664"/><text fill="#000000" font-family="sans-serif" font-size="12" lengthAdjust="spacingAndGlyphs" textLength="56" x="603.5" y="520.7051">putBomb</text><rect fill="#FEFECE" filter="url(#f13txnjxvvjosv)" height="33.9688" rx="12.5" ry="12.5" style="stroke: #A80036; stroke-width: 1.5;" width="39" x="612" y="616.9375"/><text fill="#000000" font-family="sans-serif" font-size="12" lengthAdjust="spacingAndGlyphs" textLength="19" x="622" y="638.0762">die</text><polygon fill="#FEFECE" filter="url(#f13txnjxvvjosv)" points="582,568.5352,681,568.5352,693,580.5352,681,592.5352,582,592.5352,570,580.5352,582,568.5352" style="stroke: #A80036; stroke-width: 1.5;"/><text fill="#000000" font-family="sans-serif" font-size="11" lengthAdjust="spacingAndGlyphs" textLength="30" x="635.5" y="602.7456">False</text><text fill="#000000" font-family="sans-serif" font-size="11" lengthAdjust="spacingAndGlyphs" textLength="99" x="582" y="584.3433">moveOutOfRange</text><text fill="#000000" font-family="sans-serif" font-size="11" lengthAdjust="spacingAndGlyphs" textLength="26" x="693" y="577.9409">True</text><polygon fill="#FEFECE" filter="url(#f13txnjxvvjosv)" points="631.5,675.3086,643.5,687.3086,631.5,699.3086,619.5,687.3086,631.5,675.3086" style="stroke: #A80036; stroke-width: 1.5;"/><rect fill="#FEFECE" filter="url(#f13txnjxvvjosv)" height="33.9688" rx="12.5" ry="12.5" style="stroke: #A80036; stroke-width: 1.5;" width="211" x="725" y="499.5664"/><text fill="#000000" font-family="sans-serif" font-size="12" lengthAdjust="spacingAndGlyphs" textLength="191" x="735" y="520.7051">moveTowardsDiferentDirection</text><polygon fill="#FEFECE" filter="url(#f13txnjxvvjosv)" points="731,705.3086,743,717.3086,731,729.3086,719,717.3086,731,705.3086" style="stroke: #A80036; stroke-width: 1.5;"/><rect fill="#FEFECE" filter="url(#f13txnjxvvjosv)" height="33.9688" rx="12.5" ry="12.5" style="stroke: #A80036; stroke-width: 1.5;" width="61" x="1161" y="352.6797"/><text fill="#000000" font-family="sans-serif" font-size="12" lengthAdjust="spacingAndGlyphs" textLength="41" x="1171" y="373.8184">enemy</text><polygon fill="#FEFECE" filter="url(#f13txnjxvvjosv)" points="1093.5,446.6484,1117.5,446.6484,1129.5,458.6484,1117.5,470.6484,1093.5,470.6484,1081.5,458.6484,1093.5,446.6484" style="stroke: #A80036; stroke-width: 1.5;"/><text fill="#000000" font-family="sans-serif" font-size="11" lengthAdjust="spacingAndGlyphs" textLength="20" x="1109.5" y="480.8589">yes</text><text fill="#000000" font-family="sans-serif" font-size="11" lengthAdjust="spacingAndGlyphs" textLength="21" x="1095" y="462.4565">kill?</text><polygon fill="#FEFECE" filter="url(#f13txnjxvvjosv)" points="1080,503.4531,1131,503.4531,1143,515.4531,1131,527.4531,1080,527.4531,1068,515.4531,1080,503.4531" style="stroke: #A80036; stroke-width: 1.5;"/><text fill="#000000" font-family="sans-serif" font-size="11" lengthAdjust="spacingAndGlyphs" textLength="51" x="1080" y="519.2612">putBomb</text><text fill="#000000" font-family="sans-serif" font-size="11" lengthAdjust="spacingAndGlyphs" textLength="20" x="1048" y="512.8589">yes</text><text fill="#000000" font-family="sans-serif" font-size="11" lengthAdjust="spacingAndGlyphs" textLength="14" x="1143" y="512.8589">no</text><rect fill="#FEFECE" filter="url(#f13txnjxvvjosv)" height="33.9688" rx="12.5" ry="12.5" style="stroke: #A80036; stroke-width: 1.5;" width="39" x="987" y="585.8555"/><text fill="#000000" font-family="sans-serif" font-size="12" lengthAdjust="spacingAndGlyphs" textLength="19" x="997" y="606.9941">die</text><polygon fill="#FEFECE" filter="url(#f13txnjxvvjosv)" points="958,537.4531,1055,537.4531,1067,549.4531,1055,561.4531,958,561.4531,946,549.4531,958,537.4531" style="stroke: #A80036; stroke-width: 1.5;"/><text fill="#000000" font-family="sans-serif" font-size="11" lengthAdjust="spacingAndGlyphs" textLength="30" x="1010.5" y="571.6636">False</text><text fill="#000000" font-family="sans-serif" font-size="11" lengthAdjust="spacingAndGlyphs" textLength="97" x="958" y="553.2612">moveOutofRange</text><text fill="#000000" font-family="sans-serif" font-size="11" lengthAdjust="spacingAndGlyphs" textLength="26" x="1067" y="546.8589">True</text><polygon fill="#FEFECE" filter="url(#f13txnjxvvjosv)" points="1006.5,644.2266,1018.5,656.2266,1006.5,668.2266,994.5,656.2266,1006.5,644.2266" style="stroke: #A80036; stroke-width: 1.5;"/><rect fill="#FEFECE" filter="url(#f13txnjxvvjosv)" height="33.9688" rx="12.5" ry="12.5" style="stroke: #A80036; stroke-width: 1.5;" width="211" x="1099" y="537.4531"/><text fill="#000000" font-family="sans-serif" font-size="12" lengthAdjust="spacingAndGlyphs" textLength="191" x="1109" y="558.5918">moveTowardsDiferentDirection</text><polygon fill="#FEFECE" filter="url(#f13txnjxvvjosv)" points="1105.5,674.2266,1117.5,686.2266,1105.5,698.2266,1093.5,686.2266,1105.5,674.2266" style="stroke: #A80036; stroke-width: 1.5;"/><polygon fill="#FEFECE" filter="url(#f13txnjxvvjosv)" points="1342,446.6484,1375,446.6484,1387,458.6484,1375,470.6484,1342,470.6484,1330,458.6484,1342,446.6484" style="stroke: #A80036; stroke-width: 1.5;"/><text fill="#000000" font-family="sans-serif" font-size="11" lengthAdjust="spacingAndGlyphs" textLength="20" x="1362.5" y="480.8589">yes</text><text fill="#000000" font-family="sans-serif" font-size="11" lengthAdjust="spacingAndGlyphs" textLength="33" x="1342" y="462.4565">getHit</text><text fill="#000000" font-family="sans-serif" font-size="11" lengthAdjust="spacingAndGlyphs" textLength="14" x="1387" y="456.0542">no</text><rect fill="#FEFECE" filter="url(#f13txnjxvvjosv)" height="33.9688" rx="12.5" ry="12.5" style="stroke: #A80036; stroke-width: 1.5;" width="39" x="1339" y="503.4531"/><text fill="#000000" font-family="sans-serif" font-size="12" lengthAdjust="spacingAndGlyphs" textLength="19" x="1349" y="524.5918">die</text><rect fill="#000000" filter="url(#f13txnjxvvjosv)" height="6" rx="2.5" ry="2.5" style="stroke: #000000; stroke-width: 1.0;" width="1386" x="45" y="769.3086"/><rect fill="#FEFECE" filter="url(#f13txnjxvvjosv)" height="33.9688" rx="12.5" ry="12.5" style="stroke: #A80036; stroke-width: 1.5;" width="184" x="646.5" y="795.3086"/><text fill="#000000" font-family="sans-serif" font-size="12" lengthAdjust="spacingAndGlyphs" textLength="164" x="656.5" y="816.4473">encountersNextLevelBlock</text><rect fill="#FEFECE" filter="url(#f13txnjxvvjosv)" height="33.9688" rx="12.5" ry="12.5" style="stroke: #A80036; stroke-width: 1.5;" width="81" x="698" y="849.2773"/><text fill="#000000" font-family="sans-serif" font-size="12" lengthAdjust="spacingAndGlyphs" textLength="61" x="708" y="870.416">PassLevel</text><polygon fill="#FEFECE" filter="url(#f13txnjxvvjosv)" points="720.5,157.9375,756.5,157.9375,768.5,169.9375,756.5,181.9375,720.5,181.9375,708.5,169.9375,720.5,157.9375" style="stroke: #A80036; stroke-width: 1.5;"/><text fill="#000000" font-family="sans-serif" font-size="11" lengthAdjust="spacingAndGlyphs" textLength="26" x="742.5" y="192.1479">alive</text><text fill="#000000" font-family="sans-serif" font-size="11" lengthAdjust="spacingAndGlyphs" textLength="36" x="720.5" y="173.7456">status</text><text fill="#000000" font-family="sans-serif" font-size="11" lengthAdjust="spacingAndGlyphs" textLength="28" x="680.5" y="167.3433">dead</text><ellipse cx="24" cy="216.9375" fill="#FFFFFF" filter="url(#f13txnjxvvjosv)" rx="11" ry="11" style="stroke: #000000; stroke-width: 1.0;"/><ellipse cx="24" cy="216.9375" fill="#000000" rx="6" ry="6" style="stroke: #7F7F7F; stroke-width: 1.0;"/><line style="stroke: #A80036; stroke-width: 1.5;" x1="738.5" x2="738.5" y1="30" y2="50"/><polygon fill="#A80036" points="734.5,40,738.5,50,742.5,40,738.5,44" style="stroke: #A80036; stroke-width: 1.0;"/><line style="stroke: #A80036; stroke-width: 1.5;" x1="738.5" x2="738.5" y1="83.9688" y2="103.9688"/><polygon fill="#A80036" points="734.5,93.9688,738.5,103.9688,742.5,93.9688,738.5,97.9688" style="stroke: #A80036; stroke-width: 1.0;"/><line style="stroke: #A80036; stroke-width: 1.5;" x1="738.5" x2="738.5" y1="252.7109" y2="272.7109"/><polygon fill="#A80036" points="734.5,262.7109,738.5,272.7109,742.5,262.7109,738.5,266.7109" style="stroke: #A80036; stroke-width: 1.0;"/><line style="stroke: #A80036; stroke-width: 1.5;" x1="102" x2="102" y1="551.0508" y2="583.8555"/><polygon fill="#A80036" points="98,573.8555,102,583.8555,106,573.8555,102,577.8555" style="stroke: #A80036; stroke-width: 1.0;"/><line style="stroke: #A80036; stroke-width: 1.5;" x1="102" x2="102" y1="617.8242" y2="692.8242"/><polygon fill="#A80036" points="98,682.8242,102,692.8242,106,682.8242,102,686.8242" style="stroke: #A80036; stroke-width: 1.0;"/><line style="stroke: #A80036; stroke-width: 1.5;" x1="218" x2="218" y1="551.0508" y2="583.8555"/><polygon fill="#A80036" points="214,573.8555,218,583.8555,222,573.8555,218,577.8555" style="stroke: #A80036; stroke-width: 1.0;"/><line style="stroke: #A80036; stroke-width: 1.5;" x1="218" x2="218" y1="617.8242" y2="692.8242"/><polygon fill="#A80036" points="214,682.8242,218,692.8242,222,682.8242,218,686.8242" style="stroke: #A80036; stroke-width: 1.0;"/><line style="stroke: #A80036; stroke-width: 1.5;" x1="354" x2="354" y1="551.0508" y2="583.8555"/><polygon fill="#A80036" points="350,573.8555,354,583.8555,358,573.8555,354,577.8555" style="stroke: #A80036; stroke-width: 1.0;"/><line style="stroke: #A80036; stroke-width: 1.5;" x1="354" x2="354" y1="617.8242" y2="692.8242"/><polygon fill="#A80036" points="350,682.8242,354,692.8242,358,682.8242,354,686.8242" style="stroke: #A80036; stroke-width: 1.0;"/><line style="stroke: #A80036; stroke-width: 1.5;" x1="488" x2="488" y1="551.0508" y2="583.8555"/><polygon fill="#A80036" points="484,573.8555,488,583.8555,492,573.8555,488,577.8555" style="stroke: #A80036; stroke-width: 1.0;"/><line style="stroke: #A80036; stroke-width: 1.5;" x1="488" x2="488" y1="617.8242" y2="692.8242"/><polygon fill="#A80036" points="484,682.8242,488,692.8242,492,682.8242,488,686.8242" style="stroke: #A80036; stroke-width: 1.0;"/><line style="stroke: #A80036; stroke-width: 1.5;" x1="147" x2="167" y1="539.0508" y2="539.0508"/><polygon fill="#A80036" points="157,535.0508,167,539.0508,157,543.0508,161,539.0508" style="stroke: #A80036; stroke-width: 1.0;"/><line style="stroke: #A80036; stroke-width: 1.5;" x1="269" x2="294" y1="539.0508" y2="539.0508"/><polygon fill="#A80036" points="284,535.0508,294,539.0508,284,543.0508,288,539.0508" style="stroke: #A80036; stroke-width: 1.0;"/><line style="stroke: #A80036; stroke-width: 1.5;" x1="414" x2="434" y1="539.0508" y2="539.0508"/><polygon fill="#A80036" points="424,535.0508,434,539.0508,424,543.0508,428,539.0508" style="stroke: #A80036; stroke-width: 1.0;"/><line style="stroke: #A80036; stroke-width: 1.5;" x1="322" x2="322" y1="467.0508" y2="502.0508"/><line style="stroke: #A80036; stroke-width: 1.5;" x1="322" x2="102" y1="502.0508" y2="502.0508"/><line style="stroke: #A80036; stroke-width: 1.5;" x1="102" x2="102" y1="502.0508" y2="527.0508"/><polygon fill="#A80036" points="98,517.0508,102,527.0508,106,517.0508,102,521.0508" style="stroke: #A80036; stroke-width: 1.0;"/><line style="stroke: #A80036; stroke-width: 1.5;" x1="542" x2="556" y1="539.0508" y2="539.0508"/><line style="stroke: #A80036; stroke-width: 1.5;" x1="556" x2="556" y1="539.0508" y2="692.8242"/><polygon fill="#A80036" points="552,682.8242,556,692.8242,560,682.8242,556,686.8242" style="stroke: #A80036; stroke-width: 1.0;"/><line style="stroke: #A80036; stroke-width: 1.5;" x1="102" x2="556" y1="692.8242" y2="692.8242"/><line style="stroke: #A80036; stroke-width: 1.5;" x1="631.5" x2="631.5" y1="592.5352" y2="616.9375"/><polygon fill="#A80036" points="627.5,606.9375,631.5,616.9375,635.5,606.9375,631.5,610.9375" style="stroke: #A80036; stroke-width: 1.0;"/><line style="stroke: #A80036; stroke-width: 1.5;" x1="693" x2="705" y1="580.5352" y2="580.5352"/><polygon fill="#A80036" points="701,623.9219,705,633.9219,709,623.9219,705,627.9219" style="stroke: #A80036; stroke-width: 1.5;"/><line style="stroke: #A80036; stroke-width: 1.5;" x1="705" x2="705" y1="580.5352" y2="687.3086"/><line style="stroke: #A80036; stroke-width: 1.5;" x1="705" x2="643.5" y1="687.3086" y2="687.3086"/><polygon fill="#A80036" points="653.5,683.3086,643.5,687.3086,653.5,691.3086,649.5,687.3086" style="stroke: #A80036; stroke-width: 1.0;"/><line style="stroke: #A80036; stroke-width: 1.5;" x1="631.5" x2="631.5" y1="650.9063" y2="675.3086"/><polygon fill="#A80036" points="627.5,665.3086,631.5,675.3086,635.5,665.3086,631.5,669.3086" style="stroke: #A80036; stroke-width: 1.0;"/><line style="stroke: #A80036; stroke-width: 1.5;" x1="631.5" x2="631.5" y1="533.5352" y2="568.5352"/><polygon fill="#A80036" points="627.5,558.5352,631.5,568.5352,635.5,558.5352,631.5,562.5352" style="stroke: #A80036; stroke-width: 1.0;"/><line style="stroke: #A80036; stroke-width: 1.5;" x1="700" x2="631.5" y1="477.5664" y2="477.5664"/><line style="stroke: #A80036; stroke-width: 1.5;" x1="631.5" x2="631.5" y1="477.5664" y2="499.5664"/><polygon fill="#A80036" points="627.5,489.5664,631.5,499.5664,635.5,489.5664,631.5,493.5664" style="stroke: #A80036; stroke-width: 1.0;"/><line style="stroke: #A80036; stroke-width: 1.5;" x1="762" x2="830.5" y1="477.5664" y2="477.5664"/><line style="stroke: #A80036; stroke-width: 1.5;" x1="830.5" x2="830.5" y1="477.5664" y2="499.5664"/><polygon fill="#A80036" points="826.5,489.5664,830.5,499.5664,834.5,489.5664,830.5,493.5664" style="stroke: #A80036; stroke-width: 1.0;"/><line style="stroke: #A80036; stroke-width: 1.5;" x1="631.5" x2="631.5" y1="699.3086" y2="717.3086"/><line style="stroke: #A80036; stroke-width: 1.5;" x1="631.5" x2="719" y1="717.3086" y2="717.3086"/><polygon fill="#A80036" points="709,713.3086,719,717.3086,709,721.3086,713,717.3086" style="stroke: #A80036; stroke-width: 1.0;"/><line style="stroke: #A80036; stroke-width: 1.5;" x1="830.5" x2="830.5" y1="533.5352" y2="717.3086"/><line style="stroke: #A80036; stroke-width: 1.5;" x1="830.5" x2="743" y1="717.3086" y2="717.3086"/><polygon fill="#A80036" points="753,713.3086,743,717.3086,753,721.3086,749,717.3086" style="stroke: #A80036; stroke-width: 1.0;"/><line style="stroke: #A80036; stroke-width: 1.5;" x1="731" x2="731" y1="430.5664" y2="465.5664"/><polygon fill="#A80036" points="727,455.5664,731,465.5664,735,455.5664,731,459.5664" style="stroke: #A80036; stroke-width: 1.0;"/><line style="stroke: #A80036; stroke-width: 1.5;" x1="1006.5" x2="1006.5" y1="561.4531" y2="585.8555"/><polygon fill="#A80036" points="1002.5,575.8555,1006.5,585.8555,1010.5,575.8555,1006.5,579.8555" style="stroke: #A80036; stroke-width: 1.0;"/><line style="stroke: #A80036; stroke-width: 1.5;" x1="1067" x2="1079" y1="549.4531" y2="549.4531"/><polygon fill="#A80036" points="1075,592.8398,1079,602.8398,1083,592.8398,1079,596.8398" style="stroke: #A80036; stroke-width: 1.5;"/><line style="stroke: #A80036; stroke-width: 1.5;" x1="1079" x2="1079" y1="549.4531" y2="656.2266"/><line style="stroke: #A80036; stroke-width: 1.5;" x1="1079" x2="1018.5" y1="656.2266" y2="656.2266"/><polygon fill="#A80036" points="1028.5,652.2266,1018.5,656.2266,1028.5,660.2266,1024.5,656.2266" style="stroke: #A80036; stroke-width: 1.0;"/><line style="stroke: #A80036; stroke-width: 1.5;" x1="1006.5" x2="1006.5" y1="619.8242" y2="644.2266"/><polygon fill="#A80036" points="1002.5,634.2266,1006.5,644.2266,1010.5,634.2266,1006.5,638.2266" style="stroke: #A80036; stroke-width: 1.0;"/><line style="stroke: #A80036; stroke-width: 1.5;" x1="1068" x2="1006.5" y1="515.4531" y2="515.4531"/><line style="stroke: #A80036; stroke-width: 1.5;" x1="1006.5" x2="1006.5" y1="515.4531" y2="537.4531"/><polygon fill="#A80036" points="1002.5,527.4531,1006.5,537.4531,1010.5,527.4531,1006.5,531.4531" style="stroke: #A80036; stroke-width: 1.0;"/><line style="stroke: #A80036; stroke-width: 1.5;" x1="1143" x2="1204.5" y1="515.4531" y2="515.4531"/><line style="stroke: #A80036; stroke-width: 1.5;" x1="1204.5" x2="1204.5" y1="515.4531" y2="537.4531"/><polygon fill="#A80036" points="1200.5,527.4531,1204.5,537.4531,1208.5,527.4531,1204.5,531.4531" style="stroke: #A80036; stroke-width: 1.0;"/><line style="stroke: #A80036; stroke-width: 1.5;" x1="1006.5" x2="1006.5" y1="668.2266" y2="686.2266"/><line style="stroke: #A80036; stroke-width: 1.5;" x1="1006.5" x2="1093.5" y1="686.2266" y2="686.2266"/><polygon fill="#A80036" points="1083.5,682.2266,1093.5,686.2266,1083.5,690.2266,1087.5,686.2266" style="stroke: #A80036; stroke-width: 1.0;"/><line style="stroke: #A80036; stroke-width: 1.5;" x1="1204.5" x2="1204.5" y1="571.4219" y2="686.2266"/><line style="stroke: #A80036; stroke-width: 1.5;" x1="1204.5" x2="1117.5" y1="686.2266" y2="686.2266"/><polygon fill="#A80036" points="1127.5,682.2266,1117.5,686.2266,1127.5,690.2266,1123.5,686.2266" style="stroke: #A80036; stroke-width: 1.0;"/><line style="stroke: #A80036; stroke-width: 1.5;" x1="1105.5" x2="1105.5" y1="470.6484" y2="503.4531"/><polygon fill="#A80036" points="1101.5,493.4531,1105.5,503.4531,1109.5,493.4531,1105.5,497.4531" style="stroke: #A80036; stroke-width: 1.0;"/><line style="stroke: #A80036; stroke-width: 1.5;" x1="1105.5" x2="1105.5" y1="698.2266" y2="749.3086"/><polygon fill="#A80036" points="1101.5,739.3086,1105.5,749.3086,1109.5,739.3086,1105.5,743.3086" style="stroke: #A80036; stroke-width: 1.0;"/><line style="stroke: #A80036; stroke-width: 1.5;" x1="1358.5" x2="1358.5" y1="470.6484" y2="503.4531"/><polygon fill="#A80036" points="1354.5,493.4531,1358.5,503.4531,1362.5,493.4531,1358.5,497.4531" style="stroke: #A80036; stroke-width: 1.0;"/><line style="stroke: #A80036; stroke-width: 1.5;" x1="1358.5" x2="1358.5" y1="537.4219" y2="749.3086"/><polygon fill="#A80036" points="1354.5,739.3086,1358.5,749.3086,1362.5,739.3086,1358.5,743.3086" style="stroke: #A80036; stroke-width: 1.0;"/><line style="stroke: #A80036; stroke-width: 1.5;" x1="1129.5" x2="1330" y1="458.6484" y2="458.6484"/><polygon fill="#A80036" points="1320,454.6484,1330,458.6484,1320,462.6484,1324,458.6484" style="stroke: #A80036; stroke-width: 1.0;"/><line style="stroke: #A80036; stroke-width: 1.5;" x1="1191.5" x2="1191.5" y1="386.6484" y2="421.6484"/><line style="stroke: #A80036; stroke-width: 1.5;" x1="1191.5" x2="1105.5" y1="421.6484" y2="421.6484"/><line style="stroke: #A80036; stroke-width: 1.5;" x1="1105.5" x2="1105.5" y1="421.6484" y2="446.6484"/><polygon fill="#A80036" points="1101.5,436.6484,1105.5,446.6484,1109.5,436.6484,1105.5,440.6484" style="stroke: #A80036; stroke-width: 1.0;"/><line style="stroke: #A80036; stroke-width: 1.5;" x1="1387" x2="1415" y1="458.6484" y2="458.6484"/><line style="stroke: #A80036; stroke-width: 1.5;" x1="1415" x2="1415" y1="458.6484" y2="749.3086"/><polygon fill="#A80036" points="1411,739.3086,1415,749.3086,1419,739.3086,1415,743.3086" style="stroke: #A80036; stroke-width: 1.0;"/><line style="stroke: #A80036; stroke-width: 1.5;" x1="1105.5" x2="1415" y1="749.3086" y2="749.3086"/><line style="stroke: #A80036; stroke-width: 1.5;" x1="322" x2="322" y1="332.6797" y2="433.082"/><polygon fill="#A80036" points="318,423.082,322,433.082,326,423.082,322,427.082" style="stroke: #A80036; stroke-width: 1.0;"/><line style="stroke: #A80036; stroke-width: 1.5;" x1="731" x2="731" y1="332.6797" y2="396.5977"/><polygon fill="#A80036" points="727,386.5977,731,396.5977,735,386.5977,731,390.5977" style="stroke: #A80036; stroke-width: 1.0;"/><line style="stroke: #A80036; stroke-width: 1.5;" x1="1191.5" x2="1191.5" y1="332.6797" y2="352.6797"/><polygon fill="#A80036" points="1187.5,342.6797,1191.5,352.6797,1195.5,342.6797,1191.5,346.6797" style="stroke: #A80036; stroke-width: 1.0;"/><line style="stroke: #A80036; stroke-width: 1.5;" x1="322" x2="322" y1="692.8242" y2="769.3086"/><polygon fill="#A80036" points="318,759.3086,322,769.3086,326,759.3086,322,763.3086" style="stroke: #A80036; stroke-width: 1.0;"/><line style="stroke: #A80036; stroke-width: 1.5;" x1="731" x2="731" y1="729.3086" y2="769.3086"/><polygon fill="#A80036" points="727,759.3086,731,769.3086,735,759.3086,731,763.3086" style="stroke: #A80036; stroke-width: 1.0;"/><line style="stroke: #A80036; stroke-width: 1.5;" x1="1191.5" x2="1191.5" y1="749.3086" y2="769.3086"/><polygon fill="#A80036" points="1187.5,759.3086,1191.5,769.3086,1195.5,759.3086,1191.5,763.3086" style="stroke: #A80036; stroke-width: 1.0;"/><line style="stroke: #A80036; stroke-width: 1.5;" x1="738.5" x2="738.5" y1="306.6797" y2="326.6797"/><polygon fill="#A80036" points="734.5,316.6797,738.5,326.6797,742.5,316.6797,738.5,320.6797" style="stroke: #A80036; stroke-width: 1.0;"/><line style="stroke: #A80036; stroke-width: 1.5;" x1="738.5" x2="738.5" y1="775.3086" y2="795.3086"/><polygon fill="#A80036" points="734.5,785.3086,738.5,795.3086,742.5,785.3086,738.5,789.3086" style="stroke: #A80036; stroke-width: 1.0;"/><line style="stroke: #A80036; stroke-width: 1.5;" x1="738.5" x2="738.5" y1="829.2773" y2="849.2773"/><polygon fill="#A80036" points="734.5,839.2773,738.5,849.2773,742.5,839.2773,738.5,843.2773" style="stroke: #A80036; stroke-width: 1.0;"/><line style="stroke: #A80036; stroke-width: 1.5;" x1="738.5" x2="738.5" y1="181.9375" y2="218.7422"/><polygon fill="#A80036" points="734.5,208.7422,738.5,218.7422,742.5,208.7422,738.5,212.7422" style="stroke: #A80036; stroke-width: 1.0;"/><line style="stroke: #A80036; stroke-width: 1.5;" x1="738.5" x2="738.5" y1="883.2461" y2="893.2461"/><line style="stroke: #A80036; stroke-width: 1.5;" x1="738.5" x2="1443" y1="893.2461" y2="893.2461"/><polygon fill="#A80036" points="1439,554.5508,1443,544.5508,1447,554.5508,1443,550.5508" style="stroke: #A80036; stroke-width: 1.5;"/><line style="stroke: #A80036; stroke-width: 1.5;" x1="1443" x2="1443" y1="169.9375" y2="893.2461"/><line style="stroke: #A80036; stroke-width: 1.5;" x1="1443" x2="768.5" y1="169.9375" y2="169.9375"/><polygon fill="#A80036" points="778.5,165.9375,768.5,169.9375,778.5,173.9375,774.5,169.9375" style="stroke: #A80036; stroke-width: 1.0;"/><line style="stroke: #A80036; stroke-width: 1.5;" x1="708.5" x2="24" y1="169.9375" y2="169.9375"/><line style="stroke: #A80036; stroke-width: 1.5;" x1="24" x2="24" y1="169.9375" y2="205.9375"/><polygon fill="#A80036" points="20,195.9375,24,205.9375,28,195.9375,24,199.9375" style="stroke: #A80036; stroke-width: 1.0;"/><line style="stroke: #A80036; stroke-width: 1.5;" x1="738.5" x2="738.5" y1="137.9375" y2="157.9375"/><polygon fill="#A80036" points="734.5,147.9375,738.5,157.9375,742.5,147.9375,738.5,151.9375" style="stroke: #A80036; stroke-width: 1.0;"/><!--MD5=[5a722e8b89baf181fffb7ffed2bdaec4]
@startuml
start
	:clickStart;
	:spawnCharacter;
	while (status) is (alive) 
	:move;
	:findSomething;
	fork
		:buff;
		
  if (moreSpeed) then (yes)
      :addSpeed;
		elseif (invulnerability) then (yes)
      :beInvulnerable;
		elseif (moreDetDamage) then (yes)
      :addDetDmg;
		elseif (moreDetRange) then (yes)
      :addDetRange;
		endif
	fork again
		:obstacle;
		if (break?) then (yes)
			:putBomb;
			if (moveOutOfRange) then (True)
			else (False)
				:die;
			endif
		else (no)
		:moveTowardsDiferentDirection;
	endif
	fork again
		:enemy;
    if (kill?) then (yes)
			if (putBomb) then (yes)
			  if (moveOutofRange) then (True)
				else (False)
				  :die;
			  endif
			else (no)
				:moveTowardsDiferentDirection;
    endif
      elseif (getHit) then (yes)
				:die;
			else (no)
    endif

	
end fork
	:encountersNextLevelBlock;
	:PassLevel;
	endwhile (dead)
	stop
@enduml

PlantUML version 1.2019.10(Fri Sep 13 20:53:03 UTC 2019)
(GPL source distribution)
Java Runtime: OpenJDK Runtime Environment
JVM: OpenJDK 64-Bit Server VM
Java Version: 1.8.0_222-heroku-b10
Operating System: Linux
Default Encoding: UTF-8
Language: en
Country: US
--></g></svg>