<?xml version="1.0" encoding="UTF-8" standalone="no"?><svg xmlns="http://www.w3.org/2000/svg" xmlns:xlink="http://www.w3.org/1999/xlink" contentScriptType="application/ecmascript" contentStyleType="text/css" height="744px" preserveAspectRatio="none" style="width:2228px;height:744px;" version="1.1" viewBox="0 0 2228 744" width="2228px" zoomAndPan="magnify"><defs><filter height="300%" id="f1qbtwouth9pqo" width="300%" x="-1" y="-1"><feGaussianBlur result="blurOut" stdDeviation="2.0"/><feColorMatrix in="blurOut" result="blurOut2" type="matrix" values="0 0 0 0 0 0 0 0 0 0 0 0 0 0 0 0 0 0 .4 0"/><feOffset dx="4.0" dy="4.0" in="blurOut2" result="blurOut3"/><feBlend in="SourceGraphic" in2="blurOut3" mode="normal"/></filter></defs><g><text fill="#000000" font-family="sans-serif" font-size="18" lengthAdjust="spacingAndGlyphs" textLength="265" x="985.5" y="16.708">TNTMan - UML Class Diagram</text><!--MD5=[eee9d396a8aca12c6c152931e8dc1ab6]
class Driver--><rect fill="#FEFECE" filter="url(#f1qbtwouth9pqo)" height="48" id="Driver" style="stroke: #A80036; stroke-width: 1.5;" width="68" x="888.5" y="28.9531"/><ellipse cx="903.5" cy="44.9531" fill="#A9DCDF" rx="11" ry="11" style="stroke: #A80036; stroke-width: 1.0;"/><path d="M903.6094,40.2969 L902.4531,45.375 L904.7813,45.375 L903.6094,40.2969 Z M902.125,38.0625 L905.1094,38.0625 L908.4688,50.4531 L906.0156,50.4531 L905.25,47.3906 L901.9688,47.3906 L901.2188,50.4531 L898.7813,50.4531 L902.125,38.0625 Z "/><text fill="#000000" font-family="sans-serif" font-size="12" font-style="italic" lengthAdjust="spacingAndGlyphs" textLength="36" x="917.5" y="49.1074">Driver</text><line style="stroke: #A80036; stroke-width: 1.5;" x1="889.5" x2="955.5" y1="60.9531" y2="60.9531"/><line style="stroke: #A80036; stroke-width: 1.5;" x1="889.5" x2="955.5" y1="68.9531" y2="68.9531"/><!--MD5=[c953ac9f57ecf5531402b2ad6453d65e]
class Cells--><rect fill="#FEFECE" filter="url(#f1qbtwouth9pqo)" height="73.6094" id="Cells" style="stroke: #A80036; stroke-width: 1.5;" width="126" x="894.5" y="436.4531"/><ellipse cx="938.75" cy="452.4531" fill="#A9DCDF" rx="11" ry="11" style="stroke: #A80036; stroke-width: 1.0;"/><path d="M938.8594,447.7969 L937.7031,452.875 L940.0313,452.875 L938.8594,447.7969 Z M937.375,445.5625 L940.3594,445.5625 L943.7188,457.9531 L941.2656,457.9531 L940.5,454.8906 L937.2188,454.8906 L936.4688,457.9531 L934.0313,457.9531 L937.375,445.5625 Z "/><text fill="#000000" font-family="sans-serif" font-size="12" font-style="italic" lengthAdjust="spacingAndGlyphs" textLength="29" x="959.25" y="456.6074">Cells</text><line style="stroke: #A80036; stroke-width: 1.5;" x1="895.5" x2="1019.5" y1="468.4531" y2="468.4531"/><line style="stroke: #A80036; stroke-width: 1.5;" x1="895.5" x2="1019.5" y1="476.4531" y2="476.4531"/><rect fill="#F24D5C" height="6" style="stroke: #C82930; stroke-width: 1.0;" width="6" x="902.5" y="484.4531"/><text fill="#000000" font-family="sans-serif" font-size="11" lengthAdjust="spacingAndGlyphs" textLength="69" x="914.5" y="490.6636">size:tuple(2)</text><ellipse cx="905.5" cy="500.2578" fill="#84BE84" rx="3" ry="3" style="stroke: #038048; stroke-width: 1.0;"/><text fill="#000000" font-family="sans-serif" font-size="11" lengthAdjust="spacingAndGlyphs" textLength="100" x="914.5" y="503.4683">getSize(): tuple(2)</text><!--MD5=[a64a835c3d62471a77f615251fdde58a]
class Position--><rect fill="#FEFECE" filter="url(#f1qbtwouth9pqo)" height="60.8047" id="Position" style="stroke: #A80036; stroke-width: 1.5;" width="119" x="1064" y="213.4531"/><ellipse cx="1095.65" cy="229.4531" fill="#A9DCDF" rx="11" ry="11" style="stroke: #A80036; stroke-width: 1.0;"/><path d="M1095.7594,224.7969 L1094.6031,229.875 L1096.9313,229.875 L1095.7594,224.7969 Z M1094.275,222.5625 L1097.2594,222.5625 L1100.6188,234.9531 L1098.1656,234.9531 L1097.4,231.8906 L1094.1188,231.8906 L1093.3688,234.9531 L1090.9313,234.9531 L1094.275,222.5625 Z "/><text fill="#000000" font-family="sans-serif" font-size="12" font-style="italic" lengthAdjust="spacingAndGlyphs" textLength="50" x="1113.35" y="233.6074">Position</text><line style="stroke: #A80036; stroke-width: 1.5;" x1="1065" x2="1182" y1="245.4531" y2="245.4531"/><line style="stroke: #A80036; stroke-width: 1.5;" x1="1065" x2="1182" y1="253.4531" y2="253.4531"/><rect fill="#F24D5C" height="6" style="stroke: #C82930; stroke-width: 1.0;" width="6" x="1072" y="261.4531"/><text fill="#000000" font-family="sans-serif" font-size="11" lengthAdjust="spacingAndGlyphs" textLength="93" x="1084" y="267.6636">CellsXY: tuple(2)</text><!--MD5=[4dfc6a72b8dd60daa1b635d583ff79da]
class Map--><rect fill="#FEFECE" filter="url(#f1qbtwouth9pqo)" height="124.8281" id="Map" style="stroke: #A80036; stroke-width: 1.5;" width="399" x="6" y="181.4531"/><ellipse cx="188.25" cy="197.4531" fill="#ADD1B2" rx="11" ry="11" style="stroke: #A80036; stroke-width: 1.0;"/><path d="M191.2188,203.0938 Q190.6406,203.3906 190,203.5391 Q189.3594,203.6875 188.6563,203.6875 Q186.1563,203.6875 184.8359,202.0391 Q183.5156,200.3906 183.5156,197.2656 Q183.5156,194.1406 184.8359,192.4844 Q186.1563,190.8281 188.6563,190.8281 Q189.3594,190.8281 190.0078,190.9844 Q190.6563,191.1406 191.2188,191.4375 L191.2188,194.1563 Q190.5938,193.5781 190,193.3047 Q189.4063,193.0313 188.7813,193.0313 Q187.4375,193.0313 186.75,194.1016 Q186.0625,195.1719 186.0625,197.2656 Q186.0625,199.3594 186.75,200.4297 Q187.4375,201.5 188.7813,201.5 Q189.4063,201.5 190,201.2266 Q190.5938,200.9531 191.2188,200.375 L191.2188,203.0938 Z "/><text fill="#000000" font-family="sans-serif" font-size="12" lengthAdjust="spacingAndGlyphs" textLength="26" x="208.75" y="201.6074">Map</text><line style="stroke: #A80036; stroke-width: 1.5;" x1="7" x2="404" y1="213.4531" y2="213.4531"/><rect fill="none" height="6" style="stroke: #C82930; stroke-width: 1.0;" width="6" x="14" y="221.4531"/><text fill="#000000" font-family="sans-serif" font-size="11" lengthAdjust="spacingAndGlyphs" textLength="84" x="26" y="227.6636">size:Cells[n,m]</text><line style="stroke: #A80036; stroke-width: 1.5;" x1="7" x2="404" y1="234.2578" y2="234.2578"/><ellipse cx="17" cy="245.2578" fill="#84BE84" rx="3" ry="3" style="stroke: #038048; stroke-width: 1.0;"/><text fill="#000000" font-family="sans-serif" font-size="11" lengthAdjust="spacingAndGlyphs" textLength="306" x="26" y="248.4683">entitiesInBombRange(detonationRange): Entities [0..*]</text><ellipse cx="17" cy="258.0625" fill="#84BE84" rx="3" ry="3" style="stroke: #038048; stroke-width: 1.0;"/><text fill="#000000" font-family="sans-serif" font-size="11" lengthAdjust="spacingAndGlyphs" textLength="348" x="26" y="261.2729">BBreakableInBombRange(detonationRange): BBreakable[0..*]</text><ellipse cx="17" cy="270.8672" fill="#84BE84" rx="3" ry="3" style="stroke: #038048; stroke-width: 1.0;"/><text fill="#000000" font-family="sans-serif" font-size="11" lengthAdjust="spacingAndGlyphs" textLength="373" x="26" y="274.0776">BUnbrealableInBombRange(detonationRange): BUnbreakable[0..*]</text><ellipse cx="17" cy="283.6719" fill="#84BE84" rx="3" ry="3" style="stroke: #038048; stroke-width: 1.0;"/><text fill="#000000" font-family="sans-serif" font-size="11" lengthAdjust="spacingAndGlyphs" textLength="107" x="26" y="286.8823">_init_(n: Int, m: Int)</text><ellipse cx="17" cy="296.4766" fill="#84BE84" rx="3" ry="3" style="stroke: #038048; stroke-width: 1.0;"/><text fill="#000000" font-family="sans-serif" font-size="11" lengthAdjust="spacingAndGlyphs" textLength="111" x="26" y="299.687">getSize():Cells[n,m]</text><!--MD5=[be996cdb8e6bf2fc7cb89c555f2cd144]
class Entity--><rect fill="#FEFECE" filter="url(#f1qbtwouth9pqo)" height="214.4609" id="Entity" style="stroke: #A80036; stroke-width: 1.5;" width="124" x="1218.5" y="136.9531"/><ellipse cx="1259.15" cy="152.9531" fill="#A9DCDF" rx="11" ry="11" style="stroke: #A80036; stroke-width: 1.0;"/><path d="M1259.2594,148.2969 L1258.1031,153.375 L1260.4313,153.375 L1259.2594,148.2969 Z M1257.775,146.0625 L1260.7594,146.0625 L1264.1188,158.4531 L1261.6656,158.4531 L1260.9,155.3906 L1257.6188,155.3906 L1256.8688,158.4531 L1254.4313,158.4531 L1257.775,146.0625 Z "/><text fill="#000000" font-family="sans-serif" font-size="12" font-style="italic" lengthAdjust="spacingAndGlyphs" textLength="35" x="1278.85" y="157.1074">Entity</text><line style="stroke: #A80036; stroke-width: 1.5;" x1="1219.5" x2="1341.5" y1="168.9531" y2="168.9531"/><rect fill="none" height="6" style="stroke: #C82930; stroke-width: 1.0;" width="6" x="1226.5" y="176.9531"/><text fill="#000000" font-family="sans-serif" font-size="11" lengthAdjust="spacingAndGlyphs" textLength="81" x="1238.5" y="183.1636">hitbox:Cells[2]</text><rect fill="none" height="6" style="stroke: #C82930; stroke-width: 1.0;" width="6" x="1226.5" y="189.7578"/><text fill="#000000" font-family="sans-serif" font-size="11" lengthAdjust="spacingAndGlyphs" textLength="69" x="1238.5" y="195.9683">live:Boolean</text><rect fill="none" height="6" style="stroke: #C82930; stroke-width: 1.0;" width="6" x="1226.5" y="202.5625"/><text fill="#000000" font-family="sans-serif" font-size="11" lengthAdjust="spacingAndGlyphs" textLength="42" x="1238.5" y="208.7729">lifes:Int</text><rect fill="none" height="6" style="stroke: #C82930; stroke-width: 1.0;" width="6" x="1226.5" y="215.3672"/><text fill="#000000" font-family="sans-serif" font-size="11" lengthAdjust="spacingAndGlyphs" textLength="94" x="1238.5" y="221.5776">position:Position</text><rect fill="none" height="6" style="stroke: #C82930; stroke-width: 1.0;" width="6" x="1226.5" y="228.1719"/><text fill="#000000" font-family="sans-serif" font-size="11" lengthAdjust="spacingAndGlyphs" textLength="66" x="1238.5" y="234.3823">speed:Float</text><line style="stroke: #A80036; stroke-width: 1.5;" x1="1219.5" x2="1341.5" y1="240.9766" y2="240.9766"/><ellipse cx="1229.5" cy="251.9766" fill="#84BE84" rx="3" ry="3" style="stroke: #038048; stroke-width: 1.0;"/><text fill="#000000" font-family="sans-serif" font-size="11" lengthAdjust="spacingAndGlyphs" textLength="93" x="1238.5" y="255.187">getSpeed():Float</text><ellipse cx="1229.5" cy="264.7813" fill="#84BE84" rx="3" ry="3" style="stroke: #038048; stroke-width: 1.0;"/><text fill="#000000" font-family="sans-serif" font-size="11" lengthAdjust="spacingAndGlyphs" textLength="93" x="1238.5" y="267.9917">setSpeed():Float</text><ellipse cx="1229.5" cy="277.5859" fill="#84BE84" rx="3" ry="3" style="stroke: #038048; stroke-width: 1.0;"/><text fill="#000000" font-family="sans-serif" font-size="11" lengthAdjust="spacingAndGlyphs" textLength="98" x="1238.5" y="280.7964">getLive():Boolean</text><ellipse cx="1229.5" cy="290.3906" fill="#84BE84" rx="3" ry="3" style="stroke: #038048; stroke-width: 1.0;"/><text fill="#000000" font-family="sans-serif" font-size="11" lengthAdjust="spacingAndGlyphs" textLength="71" x="1238.5" y="293.6011">getLifes():Int</text><ellipse cx="1229.5" cy="303.1953" fill="#84BE84" rx="3" ry="3" style="stroke: #038048; stroke-width: 1.0;"/><text fill="#000000" font-family="sans-serif" font-size="11" lengthAdjust="spacingAndGlyphs" textLength="71" x="1238.5" y="306.4058">setLifes():Int</text><ellipse cx="1229.5" cy="316" fill="#84BE84" rx="3" ry="3" style="stroke: #038048; stroke-width: 1.0;"/><text fill="#000000" font-family="sans-serif" font-size="11" lengthAdjust="spacingAndGlyphs" textLength="89" x="1238.5" y="319.2104">hitBy():Enemies</text><ellipse cx="1229.5" cy="328.8047" fill="#84BE84" rx="3" ry="3" style="stroke: #038048; stroke-width: 1.0;"/><text fill="#000000" font-family="sans-serif" font-size="11" lengthAdjust="spacingAndGlyphs" textLength="85" x="1238.5" y="332.0151">collide():Blocks</text><ellipse cx="1229.5" cy="341.6094" fill="#84BE84" rx="3" ry="3" style="stroke: #038048; stroke-width: 1.0;"/><text fill="#000000" font-family="sans-serif" font-size="11" lengthAdjust="spacingAndGlyphs" textLength="58" x="1238.5" y="344.8198">die():None</text><!--MD5=[f11655f9d3842754e79f73c3e84c9674]
class TNTMan--><rect fill="#FEFECE" filter="url(#f1qbtwouth9pqo)" height="112.0234" id="TNTMan" style="stroke: #A80036; stroke-width: 1.5;" width="170" x="1055.5" y="417.4531"/><ellipse cx="1111.75" cy="433.4531" fill="#ADD1B2" rx="11" ry="11" style="stroke: #A80036; stroke-width: 1.0;"/><path d="M1114.7188,439.0938 Q1114.1406,439.3906 1113.5,439.5391 Q1112.8594,439.6875 1112.1563,439.6875 Q1109.6563,439.6875 1108.3359,438.0391 Q1107.0156,436.3906 1107.0156,433.2656 Q1107.0156,430.1406 1108.3359,428.4844 Q1109.6563,426.8281 1112.1563,426.8281 Q1112.8594,426.8281 1113.5078,426.9844 Q1114.1563,427.1406 1114.7188,427.4375 L1114.7188,430.1563 Q1114.0938,429.5781 1113.5,429.3047 Q1112.9063,429.0313 1112.2813,429.0313 Q1110.9375,429.0313 1110.25,430.1016 Q1109.5625,431.1719 1109.5625,433.2656 Q1109.5625,435.3594 1110.25,436.4297 Q1110.9375,437.5 1112.2813,437.5 Q1112.9063,437.5 1113.5,437.2266 Q1114.0938,436.9531 1114.7188,436.375 L1114.7188,439.0938 Z "/><text fill="#000000" font-family="sans-serif" font-size="12" lengthAdjust="spacingAndGlyphs" textLength="49" x="1132.25" y="437.6074">TNTMan</text><line style="stroke: #A80036; stroke-width: 1.5;" x1="1056.5" x2="1224.5" y1="449.4531" y2="449.4531"/><rect fill="none" height="6" style="stroke: #C82930; stroke-width: 1.0;" width="6" x="1063.5" y="457.4531"/><text fill="#000000" font-family="sans-serif" font-size="11" lengthAdjust="spacingAndGlyphs" textLength="72" x="1075.5" y="463.6636">buff:Boolean</text><ellipse cx="1066.5" cy="473.2578" fill="none" rx="3" ry="3" style="stroke: #038048; stroke-width: 1.0;"/><text fill="#000000" font-family="sans-serif" font-size="11" lengthAdjust="spacingAndGlyphs" textLength="98" x="1075.5" y="476.4683">position: Position</text><line style="stroke: #A80036; stroke-width: 1.5;" x1="1056.5" x2="1224.5" y1="483.0625" y2="483.0625"/><ellipse cx="1066.5" cy="494.0625" fill="#84BE84" rx="3" ry="3" style="stroke: #038048; stroke-width: 1.0;"/><text fill="#000000" font-family="sans-serif" font-size="11" lengthAdjust="spacingAndGlyphs" textLength="144" x="1075.5" y="497.2729">deployBomb(Bomb):None</text><ellipse cx="1066.5" cy="506.8672" fill="#84BE84" rx="3" ry="3" style="stroke: #038048; stroke-width: 1.0;"/><text fill="#000000" font-family="sans-serif" font-size="11" lengthAdjust="spacingAndGlyphs" textLength="102" x="1075.5" y="510.0776">pickUpKey(): None</text><ellipse cx="1066.5" cy="519.6719" fill="#84BE84" rx="3" ry="3" style="stroke: #038048; stroke-width: 1.0;"/><text fill="#000000" font-family="sans-serif" font-size="11" lengthAdjust="spacingAndGlyphs" textLength="142" x="1075.5" y="522.8823">move(Direction): Position</text><!--MD5=[612ba1bd76ba2e43180f8a4c173689eb]
class Enemies--><rect fill="#FEFECE" filter="url(#f1qbtwouth9pqo)" height="124.8281" id="Enemies" style="stroke: #A80036; stroke-width: 1.5;" width="146" x="1260.5" y="410.9531"/><ellipse cx="1302.95" cy="426.9531" fill="#ADD1B2" rx="11" ry="11" style="stroke: #A80036; stroke-width: 1.0;"/><path d="M1305.9188,432.5938 Q1305.3406,432.8906 1304.7,433.0391 Q1304.0594,433.1875 1303.3563,433.1875 Q1300.8563,433.1875 1299.5359,431.5391 Q1298.2156,429.8906 1298.2156,426.7656 Q1298.2156,423.6406 1299.5359,421.9844 Q1300.8563,420.3281 1303.3563,420.3281 Q1304.0594,420.3281 1304.7078,420.4844 Q1305.3563,420.6406 1305.9188,420.9375 L1305.9188,423.6563 Q1305.2938,423.0781 1304.7,422.8047 Q1304.1063,422.5313 1303.4813,422.5313 Q1302.1375,422.5313 1301.45,423.6016 Q1300.7625,424.6719 1300.7625,426.7656 Q1300.7625,428.8594 1301.45,429.9297 Q1302.1375,431 1303.4813,431 Q1304.1063,431 1304.7,430.7266 Q1305.2938,430.4531 1305.9188,429.875 L1305.9188,432.5938 Z "/><text fill="#000000" font-family="sans-serif" font-size="12" lengthAdjust="spacingAndGlyphs" textLength="53" x="1323.05" y="431.1074">Enemies</text><line style="stroke: #A80036; stroke-width: 1.5;" x1="1261.5" x2="1405.5" y1="442.9531" y2="442.9531"/><rect fill="none" height="6" style="stroke: #C82930; stroke-width: 1.0;" width="6" x="1268.5" y="450.9531"/><text fill="#000000" font-family="sans-serif" font-size="11" lengthAdjust="spacingAndGlyphs" textLength="64" x="1280.5" y="457.1636">damage:Int</text><line style="stroke: #A80036; stroke-width: 1.5;" x1="1261.5" x2="1405.5" y1="463.7578" y2="463.7578"/><ellipse cx="1271.5" cy="474.7578" fill="#84BE84" rx="3" ry="3" style="stroke: #038048; stroke-width: 1.0;"/><text fill="#000000" font-family="sans-serif" font-size="11" lengthAdjust="spacingAndGlyphs" textLength="91" x="1280.5" y="477.9683">getDamage():Int</text><ellipse cx="1271.5" cy="487.5625" fill="#84BE84" rx="3" ry="3" style="stroke: #038048; stroke-width: 1.0;"/><text fill="#000000" font-family="sans-serif" font-size="11" lengthAdjust="spacingAndGlyphs" textLength="120" x="1280.5" y="490.7729">setDamage(Int):None</text><ellipse cx="1271.5" cy="500.3672" fill="#84BE84" rx="3" ry="3" style="stroke: #038048; stroke-width: 1.0;"/><text fill="#000000" font-family="sans-serif" font-size="11" lengthAdjust="spacingAndGlyphs" textLength="104" x="1280.5" y="503.5776">makeDamage():Int</text><ellipse cx="1271.5" cy="513.1719" fill="#84BE84" rx="3" ry="3" style="stroke: #038048; stroke-width: 1.0;"/><text fill="#000000" font-family="sans-serif" font-size="11" lengthAdjust="spacingAndGlyphs" textLength="100" x="1280.5" y="516.3823">hitTNTMan():None</text><ellipse cx="1271.5" cy="525.9766" fill="#84BE84" rx="3" ry="3" style="stroke: #038048; stroke-width: 1.0;"/><text fill="#000000" font-family="sans-serif" font-size="11" lengthAdjust="spacingAndGlyphs" textLength="81" x="1280.5" y="529.187">collide(): None</text><!--MD5=[7505e286249b15c81eb830586b01f924]
class Bomb--><rect fill="#FEFECE" filter="url(#f1qbtwouth9pqo)" height="188.8516" id="Bomb" style="stroke: #A80036; stroke-width: 1.5;" width="239" x="440" y="149.4531"/><ellipse cx="537.75" cy="165.4531" fill="#ADD1B2" rx="11" ry="11" style="stroke: #A80036; stroke-width: 1.0;"/><path d="M540.7188,171.0938 Q540.1406,171.3906 539.5,171.5391 Q538.8594,171.6875 538.1563,171.6875 Q535.6563,171.6875 534.3359,170.0391 Q533.0156,168.3906 533.0156,165.2656 Q533.0156,162.1406 534.3359,160.4844 Q535.6563,158.8281 538.1563,158.8281 Q538.8594,158.8281 539.5078,158.9844 Q540.1563,159.1406 540.7188,159.4375 L540.7188,162.1563 Q540.0938,161.5781 539.5,161.3047 Q538.9063,161.0313 538.2813,161.0313 Q536.9375,161.0313 536.25,162.1016 Q535.5625,163.1719 535.5625,165.2656 Q535.5625,167.3594 536.25,168.4297 Q536.9375,169.5 538.2813,169.5 Q538.9063,169.5 539.5,169.2266 Q540.0938,168.9531 540.7188,168.375 L540.7188,171.0938 Z "/><text fill="#000000" font-family="sans-serif" font-size="12" lengthAdjust="spacingAndGlyphs" textLength="35" x="558.25" y="169.6074">Bomb</text><line style="stroke: #A80036; stroke-width: 1.5;" x1="441" x2="678" y1="181.4531" y2="181.4531"/><rect fill="none" height="6" style="stroke: #C82930; stroke-width: 1.0;" width="6" x="448" y="189.4531"/><text fill="#000000" font-family="sans-serif" font-size="11" lengthAdjust="spacingAndGlyphs" textLength="81" x="460" y="195.6636">hitbox:Cells[2]</text><rect fill="none" height="6" style="stroke: #C82930; stroke-width: 1.0;" width="6" x="448" y="202.2578"/><text fill="#000000" font-family="sans-serif" font-size="11" lengthAdjust="spacingAndGlyphs" textLength="119" x="460" y="208.4683">detonationTime:Float</text><rect fill="none" height="6" style="stroke: #C82930; stroke-width: 1.0;" width="6" x="448" y="215.0625"/><text fill="#000000" font-family="sans-serif" font-size="11" lengthAdjust="spacingAndGlyphs" textLength="157" x="460" y="221.2729">detonationRange:Cells[n,m]</text><rect fill="none" height="6" style="stroke: #C82930; stroke-width: 1.0;" width="6" x="448" y="227.8672"/><text fill="#000000" font-family="sans-serif" font-size="11" lengthAdjust="spacingAndGlyphs" textLength="92" x="460" y="234.0776">position:Cells[2]</text><line style="stroke: #A80036; stroke-width: 1.5;" x1="441" x2="678" y1="240.6719" y2="240.6719"/><ellipse cx="451" cy="251.6719" fill="#84BE84" rx="3" ry="3" style="stroke: #038048; stroke-width: 1.0;"/><text fill="#000000" font-family="sans-serif" font-size="11" lengthAdjust="spacingAndGlyphs" textLength="118" x="460" y="254.8823">getPosition():Cells[2]</text><ellipse cx="451" cy="264.4766" fill="#84BE84" rx="3" ry="3" style="stroke: #038048; stroke-width: 1.0;"/><text fill="#000000" font-family="sans-serif" font-size="11" lengthAdjust="spacingAndGlyphs" textLength="147" x="460" y="267.687">setPosition(Cells[2]):None</text><ellipse cx="451" cy="277.2813" fill="#84BE84" rx="3" ry="3" style="stroke: #038048; stroke-width: 1.0;"/><text fill="#000000" font-family="sans-serif" font-size="11" lengthAdjust="spacingAndGlyphs" textLength="146" x="460" y="280.4917">getDetonationTime():Float</text><ellipse cx="451" cy="290.0859" fill="#84BE84" rx="3" ry="3" style="stroke: #038048; stroke-width: 1.0;"/><text fill="#000000" font-family="sans-serif" font-size="11" lengthAdjust="spacingAndGlyphs" textLength="175" x="460" y="293.2964">setDetonationTime(Float):None</text><ellipse cx="451" cy="302.8906" fill="#84BE84" rx="3" ry="3" style="stroke: #038048; stroke-width: 1.0;"/><text fill="#000000" font-family="sans-serif" font-size="11" lengthAdjust="spacingAndGlyphs" textLength="184" x="460" y="306.1011">getDetonationRange():Cells[n,m]</text><ellipse cx="451" cy="315.6953" fill="#84BE84" rx="3" ry="3" style="stroke: #038048; stroke-width: 1.0;"/><text fill="#000000" font-family="sans-serif" font-size="11" lengthAdjust="spacingAndGlyphs" textLength="213" x="460" y="318.9058">setDetonationRange(Cells[n,m]):None</text><ellipse cx="451" cy="328.5" fill="#84BE84" rx="3" ry="3" style="stroke: #038048; stroke-width: 1.0;"/><text fill="#000000" font-family="sans-serif" font-size="11" lengthAdjust="spacingAndGlyphs" textLength="198" x="460" y="331.7104">detonate(detRange, detTime):None</text><!--MD5=[9c9c9c90244d5ab1f1758aa89478b8ec]
class Explotion--><rect fill="#FEFECE" filter="url(#f1qbtwouth9pqo)" height="86.4141" id="Explotion" style="stroke: #A80036; stroke-width: 1.5;" width="243" x="714" y="200.9531"/><ellipse cx="802.75" cy="216.9531" fill="#ADD1B2" rx="11" ry="11" style="stroke: #A80036; stroke-width: 1.0;"/><path d="M805.7188,222.5938 Q805.1406,222.8906 804.5,223.0391 Q803.8594,223.1875 803.1563,223.1875 Q800.6563,223.1875 799.3359,221.5391 Q798.0156,219.8906 798.0156,216.7656 Q798.0156,213.6406 799.3359,211.9844 Q800.6563,210.3281 803.1563,210.3281 Q803.8594,210.3281 804.5078,210.4844 Q805.1563,210.6406 805.7188,210.9375 L805.7188,213.6563 Q805.0938,213.0781 804.5,212.8047 Q803.9063,212.5313 803.2813,212.5313 Q801.9375,212.5313 801.25,213.6016 Q800.5625,214.6719 800.5625,216.7656 Q800.5625,218.8594 801.25,219.9297 Q801.9375,221 803.2813,221 Q803.9063,221 804.5,220.7266 Q805.0938,220.4531 805.7188,219.875 L805.7188,222.5938 Z "/><text fill="#000000" font-family="sans-serif" font-size="12" lengthAdjust="spacingAndGlyphs" textLength="57" x="823.25" y="221.1074">Explotion</text><line style="stroke: #A80036; stroke-width: 1.5;" x1="715" x2="956" y1="232.9531" y2="232.9531"/><line style="stroke: #A80036; stroke-width: 1.5;" x1="715" x2="956" y1="240.9531" y2="240.9531"/><ellipse cx="725" cy="251.9531" fill="#84BE84" rx="3" ry="3" style="stroke: #038048; stroke-width: 1.0;"/><text fill="#000000" font-family="sans-serif" font-size="11" lengthAdjust="spacingAndGlyphs" textLength="217" x="734" y="255.1636">getDetonationRange(Cells[n,m]): None</text><ellipse cx="725" cy="264.7578" fill="#84BE84" rx="3" ry="3" style="stroke: #038048; stroke-width: 1.0;"/><text fill="#000000" font-family="sans-serif" font-size="11" lengthAdjust="spacingAndGlyphs" textLength="188" x="734" y="267.9683">setDetonationRange(): Cells[n,m]</text><ellipse cx="725" cy="277.5625" fill="#84BE84" rx="3" ry="3" style="stroke: #038048; stroke-width: 1.0;"/><text fill="#000000" font-family="sans-serif" font-size="11" lengthAdjust="spacingAndGlyphs" textLength="130" x="734" y="280.7729">isEntityNear(): Boolean</text><!--MD5=[0c4c0ce4ba9d3e00eb4820f1ae538e07]
class Buffs--><rect fill="#FEFECE" filter="url(#f1qbtwouth9pqo)" height="137.6328" id="Buffs" style="stroke: #A80036; stroke-width: 1.5;" width="139" x="1071" y="595.9531"/><ellipse cx="1120.75" cy="611.9531" fill="#ADD1B2" rx="11" ry="11" style="stroke: #A80036; stroke-width: 1.0;"/><path d="M1123.7188,617.5938 Q1123.1406,617.8906 1122.5,618.0391 Q1121.8594,618.1875 1121.1563,618.1875 Q1118.6563,618.1875 1117.3359,616.5391 Q1116.0156,614.8906 1116.0156,611.7656 Q1116.0156,608.6406 1117.3359,606.9844 Q1118.6563,605.3281 1121.1563,605.3281 Q1121.8594,605.3281 1122.5078,605.4844 Q1123.1563,605.6406 1123.7188,605.9375 L1123.7188,608.6563 Q1123.0938,608.0781 1122.5,607.8047 Q1121.9063,607.5313 1121.2813,607.5313 Q1119.9375,607.5313 1119.25,608.6016 Q1118.5625,609.6719 1118.5625,611.7656 Q1118.5625,613.8594 1119.25,614.9297 Q1119.9375,616 1121.2813,616 Q1121.9063,616 1122.5,615.7266 Q1123.0938,615.4531 1123.7188,614.875 L1123.7188,617.5938 Z "/><text fill="#000000" font-family="sans-serif" font-size="12" lengthAdjust="spacingAndGlyphs" textLength="31" x="1141.25" y="616.1074">Buffs</text><line style="stroke: #A80036; stroke-width: 1.5;" x1="1072" x2="1209" y1="627.9531" y2="627.9531"/><rect fill="none" height="6" style="stroke: #C82930; stroke-width: 1.0;" width="6" x="1079" y="635.9531"/><text fill="#000000" font-family="sans-serif" font-size="11" lengthAdjust="spacingAndGlyphs" textLength="66" x="1091" y="642.1636">type: String</text><rect fill="none" height="6" style="stroke: #C82930; stroke-width: 1.0;" width="6" x="1079" y="648.7578"/><text fill="#000000" font-family="sans-serif" font-size="11" lengthAdjust="spacingAndGlyphs" textLength="82" x="1091" y="654.9683">duration: Float</text><rect fill="none" height="6" style="stroke: #C82930; stroke-width: 1.0;" width="6" x="1079" y="661.5625"/><text fill="#000000" font-family="sans-serif" font-size="11" lengthAdjust="spacingAndGlyphs" textLength="87" x="1091" y="667.7729">active: Boolean</text><rect fill="none" height="6" style="stroke: #C82930; stroke-width: 1.0;" width="6" x="1079" y="674.3672"/><text fill="#000000" font-family="sans-serif" font-size="11" lengthAdjust="spacingAndGlyphs" textLength="96" x="1091" y="680.5776">position: Cells[2]</text><line style="stroke: #A80036; stroke-width: 1.5;" x1="1072" x2="1209" y1="687.1719" y2="687.1719"/><ellipse cx="1082" cy="698.1719" fill="#84BE84" rx="3" ry="3" style="stroke: #038048; stroke-width: 1.0;"/><text fill="#000000" font-family="sans-serif" font-size="11" lengthAdjust="spacingAndGlyphs" textLength="113" x="1091" y="701.3823">pickedUp(): Boolean</text><ellipse cx="1082" cy="710.9766" fill="#84BE84" rx="3" ry="3" style="stroke: #038048; stroke-width: 1.0;"/><text fill="#000000" font-family="sans-serif" font-size="11" lengthAdjust="spacingAndGlyphs" textLength="109" x="1091" y="714.187">getDuration(): Float</text><ellipse cx="1082" cy="723.7813" fill="#84BE84" rx="3" ry="3" style="stroke: #038048; stroke-width: 1.0;"/><text fill="#000000" font-family="sans-serif" font-size="11" lengthAdjust="spacingAndGlyphs" textLength="95" x="1091" y="726.9917">getType(): String</text><!--MD5=[e9332a01d3dc4cc67277ee12019f5f54]
class Blocks--><rect fill="#FEFECE" filter="url(#f1qbtwouth9pqo)" height="86.4141" id="Blocks" style="stroke: #A80036; stroke-width: 1.5;" width="126" x="1688.5" y="200.9531"/><ellipse cx="1727.8" cy="216.9531" fill="#A9DCDF" rx="11" ry="11" style="stroke: #A80036; stroke-width: 1.0;"/><path d="M1727.9094,212.2969 L1726.7531,217.375 L1729.0813,217.375 L1727.9094,212.2969 Z M1726.425,210.0625 L1729.4094,210.0625 L1732.7688,222.4531 L1730.3156,222.4531 L1729.55,219.3906 L1726.2688,219.3906 L1725.5188,222.4531 L1723.0813,222.4531 L1726.425,210.0625 Z "/><text fill="#000000" font-family="sans-serif" font-size="12" font-style="italic" lengthAdjust="spacingAndGlyphs" textLength="40" x="1747.2" y="221.1074">Blocks</text><line style="stroke: #A80036; stroke-width: 1.5;" x1="1689.5" x2="1813.5" y1="232.9531" y2="232.9531"/><rect fill="none" height="6" style="stroke: #C82930; stroke-width: 1.0;" width="6" x="1696.5" y="240.9531"/><text fill="#000000" font-family="sans-serif" font-size="11" lengthAdjust="spacingAndGlyphs" textLength="100" x="1708.5" y="247.1636">collision: Boolean</text><rect fill="none" height="6" style="stroke: #C82930; stroke-width: 1.0;" width="6" x="1696.5" y="253.7578"/><text fill="#000000" font-family="sans-serif" font-size="11" lengthAdjust="spacingAndGlyphs" textLength="85" x="1708.5" y="259.9683">hitbox: Cells[2]</text><rect fill="none" height="6" style="stroke: #C82930; stroke-width: 1.0;" width="6" x="1696.5" y="266.5625"/><text fill="#000000" font-family="sans-serif" font-size="11" lengthAdjust="spacingAndGlyphs" textLength="96" x="1708.5" y="272.7729">position: Cells[2]</text><line style="stroke: #A80036; stroke-width: 1.5;" x1="1689.5" x2="1813.5" y1="279.3672" y2="279.3672"/><!--MD5=[d2ab08c309d35dd5f635ab56c1861370]
class BBreakable--><rect fill="#FEFECE" filter="url(#f1qbtwouth9pqo)" height="112.0234" id="BBreakable" style="stroke: #A80036; stroke-width: 1.5;" width="183" x="1442" y="417.4531"/><ellipse cx="1493.75" cy="433.4531" fill="#ADD1B2" rx="11" ry="11" style="stroke: #A80036; stroke-width: 1.0;"/><path d="M1496.7188,439.0938 Q1496.1406,439.3906 1495.5,439.5391 Q1494.8594,439.6875 1494.1563,439.6875 Q1491.6563,439.6875 1490.3359,438.0391 Q1489.0156,436.3906 1489.0156,433.2656 Q1489.0156,430.1406 1490.3359,428.4844 Q1491.6563,426.8281 1494.1563,426.8281 Q1494.8594,426.8281 1495.5078,426.9844 Q1496.1563,427.1406 1496.7188,427.4375 L1496.7188,430.1563 Q1496.0938,429.5781 1495.5,429.3047 Q1494.9063,429.0313 1494.2813,429.0313 Q1492.9375,429.0313 1492.25,430.1016 Q1491.5625,431.1719 1491.5625,433.2656 Q1491.5625,435.3594 1492.25,436.4297 Q1492.9375,437.5 1494.2813,437.5 Q1494.9063,437.5 1495.5,437.2266 Q1496.0938,436.9531 1496.7188,436.375 L1496.7188,439.0938 Z "/><text fill="#000000" font-family="sans-serif" font-size="12" lengthAdjust="spacingAndGlyphs" textLength="71" x="1514.25" y="437.6074">BBreakable</text><line style="stroke: #A80036; stroke-width: 1.5;" x1="1443" x2="1624" y1="449.4531" y2="449.4531"/><rect fill="none" height="6" style="stroke: #C82930; stroke-width: 1.0;" width="6" x="1450" y="457.4531"/><text fill="#000000" font-family="sans-serif" font-size="11" lengthAdjust="spacingAndGlyphs" textLength="129" x="1462" y="463.6636">canBeBroken: Boolean</text><rect fill="none" height="6" style="stroke: #C82930; stroke-width: 1.0;" width="6" x="1450" y="470.2578"/><text fill="#000000" font-family="sans-serif" font-size="11" lengthAdjust="spacingAndGlyphs" textLength="73" x="1462" y="476.4683">live: Boolean</text><line style="stroke: #A80036; stroke-width: 1.5;" x1="1443" x2="1624" y1="483.0625" y2="483.0625"/><ellipse cx="1453" cy="494.0625" fill="#84BE84" rx="3" ry="3" style="stroke: #038048; stroke-width: 1.0;"/><text fill="#000000" font-family="sans-serif" font-size="11" lengthAdjust="spacingAndGlyphs" textLength="25" x="1462" y="497.2729">die()</text><ellipse cx="1453" cy="506.8672" fill="#84BE84" rx="3" ry="3" style="stroke: #038048; stroke-width: 1.0;"/><text fill="#000000" font-family="sans-serif" font-size="11" lengthAdjust="spacingAndGlyphs" textLength="157" x="1462" y="510.0776">getCanBeBroken(): Boolean</text><ellipse cx="1453" cy="519.6719" fill="#84BE84" rx="3" ry="3" style="stroke: #038048; stroke-width: 1.0;"/><text fill="#000000" font-family="sans-serif" font-size="11" lengthAdjust="spacingAndGlyphs" textLength="102" x="1462" y="522.8823">getLive(): Boolean</text><!--MD5=[9418c892abfb2fcf6e508ccb8fa2acba]
class BUnbreakable--><rect fill="#FEFECE" filter="url(#f1qbtwouth9pqo)" height="112.0234" id="BUnbreakable" style="stroke: #A80036; stroke-width: 1.5;" width="183" x="1660" y="417.4531"/><ellipse cx="1703.35" cy="433.4531" fill="#ADD1B2" rx="11" ry="11" style="stroke: #A80036; stroke-width: 1.0;"/><path d="M1706.3188,439.0938 Q1705.7406,439.3906 1705.1,439.5391 Q1704.4594,439.6875 1703.7563,439.6875 Q1701.2563,439.6875 1699.9359,438.0391 Q1698.6156,436.3906 1698.6156,433.2656 Q1698.6156,430.1406 1699.9359,428.4844 Q1701.2563,426.8281 1703.7563,426.8281 Q1704.4594,426.8281 1705.1078,426.9844 Q1705.7563,427.1406 1706.3188,427.4375 L1706.3188,430.1563 Q1705.6938,429.5781 1705.1,429.3047 Q1704.5063,429.0313 1703.8813,429.0313 Q1702.5375,429.0313 1701.85,430.1016 Q1701.1625,431.1719 1701.1625,433.2656 Q1701.1625,435.3594 1701.85,436.4297 Q1702.5375,437.5 1703.8813,437.5 Q1704.5063,437.5 1705.1,437.2266 Q1705.6938,436.9531 1706.3188,436.375 L1706.3188,439.0938 Z "/><text fill="#000000" font-family="sans-serif" font-size="12" lengthAdjust="spacingAndGlyphs" textLength="88" x="1723.65" y="437.6074">BUnbreakable</text><line style="stroke: #A80036; stroke-width: 1.5;" x1="1661" x2="1842" y1="449.4531" y2="449.4531"/><rect fill="none" height="6" style="stroke: #C82930; stroke-width: 1.0;" width="6" x="1668" y="457.4531"/><text fill="#000000" font-family="sans-serif" font-size="11" lengthAdjust="spacingAndGlyphs" textLength="129" x="1680" y="463.6636">canBeBroken: Boolean</text><rect fill="none" height="6" style="stroke: #C82930; stroke-width: 1.0;" width="6" x="1668" y="470.2578"/><text fill="#000000" font-family="sans-serif" font-size="11" lengthAdjust="spacingAndGlyphs" textLength="73" x="1680" y="476.4683">live: Boolean</text><line style="stroke: #A80036; stroke-width: 1.5;" x1="1661" x2="1842" y1="483.0625" y2="483.0625"/><ellipse cx="1671" cy="494.0625" fill="#84BE84" rx="3" ry="3" style="stroke: #038048; stroke-width: 1.0;"/><text fill="#000000" font-family="sans-serif" font-size="11" lengthAdjust="spacingAndGlyphs" textLength="62" x="1680" y="497.2729">die(): None</text><ellipse cx="1671" cy="506.8672" fill="#84BE84" rx="3" ry="3" style="stroke: #038048; stroke-width: 1.0;"/><text fill="#000000" font-family="sans-serif" font-size="11" lengthAdjust="spacingAndGlyphs" textLength="157" x="1680" y="510.0776">getCanBeBroken(): Boolean</text><ellipse cx="1671" cy="519.6719" fill="#84BE84" rx="3" ry="3" style="stroke: #038048; stroke-width: 1.0;"/><text fill="#000000" font-family="sans-serif" font-size="11" lengthAdjust="spacingAndGlyphs" textLength="102" x="1680" y="522.8823">getLive(): Boolean</text><!--MD5=[ef71950e3c2fae78dc03e396da5b645a]
class BExit--><rect fill="#FEFECE" filter="url(#f1qbtwouth9pqo)" height="99.2188" id="BExit" style="stroke: #A80036; stroke-width: 1.5;" width="178" x="1878.5" y="423.9531"/><ellipse cx="1948.25" cy="439.9531" fill="#ADD1B2" rx="11" ry="11" style="stroke: #A80036; stroke-width: 1.0;"/><path d="M1951.2188,445.5938 Q1950.6406,445.8906 1950,446.0391 Q1949.3594,446.1875 1948.6563,446.1875 Q1946.1563,446.1875 1944.8359,444.5391 Q1943.5156,442.8906 1943.5156,439.7656 Q1943.5156,436.6406 1944.8359,434.9844 Q1946.1563,433.3281 1948.6563,433.3281 Q1949.3594,433.3281 1950.0078,433.4844 Q1950.6563,433.6406 1951.2188,433.9375 L1951.2188,436.6563 Q1950.5938,436.0781 1950,435.8047 Q1949.4063,435.5313 1948.7813,435.5313 Q1947.4375,435.5313 1946.75,436.6016 Q1946.0625,437.6719 1946.0625,439.7656 Q1946.0625,441.8594 1946.75,442.9297 Q1947.4375,444 1948.7813,444 Q1949.4063,444 1950,443.7266 Q1950.5938,443.4531 1951.2188,442.875 L1951.2188,445.5938 Z "/><text fill="#000000" font-family="sans-serif" font-size="12" lengthAdjust="spacingAndGlyphs" textLength="30" x="1968.75" y="444.1074">BExit</text><line style="stroke: #A80036; stroke-width: 1.5;" x1="1879.5" x2="2055.5" y1="455.9531" y2="455.9531"/><rect fill="none" height="6" style="stroke: #C82930; stroke-width: 1.0;" width="6" x="1886.5" y="463.9531"/><text fill="#000000" font-family="sans-serif" font-size="11" lengthAdjust="spacingAndGlyphs" textLength="152" x="1898.5" y="470.1636">playerGoThrough: Boolean</text><rect fill="none" height="6" style="stroke: #C82930; stroke-width: 1.0;" width="6" x="1886.5" y="476.7578"/><text fill="#000000" font-family="sans-serif" font-size="11" lengthAdjust="spacingAndGlyphs" textLength="94" x="1898.5" y="482.9683">isOpen: Boolean</text><line style="stroke: #A80036; stroke-width: 1.5;" x1="1879.5" x2="2055.5" y1="489.5625" y2="489.5625"/><ellipse cx="1889.5" cy="500.5625" fill="#84BE84" rx="3" ry="3" style="stroke: #038048; stroke-width: 1.0;"/><text fill="#000000" font-family="sans-serif" font-size="11" lengthAdjust="spacingAndGlyphs" textLength="62" x="1898.5" y="503.7729">die(): None</text><ellipse cx="1889.5" cy="513.3672" fill="#84BE84" rx="3" ry="3" style="stroke: #038048; stroke-width: 1.0;"/><text fill="#000000" font-family="sans-serif" font-size="11" lengthAdjust="spacingAndGlyphs" textLength="104" x="1898.5" y="516.5776">open(Bkey) : None</text><!--MD5=[120c7656ed30a513ddd8950ca3cf766d]
class BKey--><rect fill="#FEFECE" filter="url(#f1qbtwouth9pqo)" height="86.4141" id="BKey" style="stroke: #A80036; stroke-width: 1.5;" width="126" x="2091.5" y="430.4531"/><ellipse cx="2135.75" cy="446.4531" fill="#ADD1B2" rx="11" ry="11" style="stroke: #A80036; stroke-width: 1.0;"/><path d="M2138.7188,452.0938 Q2138.1406,452.3906 2137.5,452.5391 Q2136.8594,452.6875 2136.1563,452.6875 Q2133.6563,452.6875 2132.3359,451.0391 Q2131.0156,449.3906 2131.0156,446.2656 Q2131.0156,443.1406 2132.3359,441.4844 Q2133.6563,439.8281 2136.1563,439.8281 Q2136.8594,439.8281 2137.5078,439.9844 Q2138.1563,440.1406 2138.7188,440.4375 L2138.7188,443.1563 Q2138.0938,442.5781 2137.5,442.3047 Q2136.9063,442.0313 2136.2813,442.0313 Q2134.9375,442.0313 2134.25,443.1016 Q2133.5625,444.1719 2133.5625,446.2656 Q2133.5625,448.3594 2134.25,449.4297 Q2134.9375,450.5 2136.2813,450.5 Q2136.9063,450.5 2137.5,450.2266 Q2138.0938,449.9531 2138.7188,449.375 L2138.7188,452.0938 Z "/><text fill="#000000" font-family="sans-serif" font-size="12" lengthAdjust="spacingAndGlyphs" textLength="29" x="2156.25" y="450.6074">BKey</text><line style="stroke: #A80036; stroke-width: 1.5;" x1="2092.5" x2="2216.5" y1="462.4531" y2="462.4531"/><rect fill="none" height="6" style="stroke: #C82930; stroke-width: 1.0;" width="6" x="2099.5" y="470.4531"/><text fill="#000000" font-family="sans-serif" font-size="11" lengthAdjust="spacingAndGlyphs" textLength="100" x="2111.5" y="476.6636">isPicked: Boolean</text><line style="stroke: #A80036; stroke-width: 1.5;" x1="2092.5" x2="2216.5" y1="483.2578" y2="483.2578"/><ellipse cx="2102.5" cy="494.2578" fill="#84BE84" rx="3" ry="3" style="stroke: #038048; stroke-width: 1.0;"/><text fill="#000000" font-family="sans-serif" font-size="11" lengthAdjust="spacingAndGlyphs" textLength="62" x="2111.5" y="497.4683">die(): None</text><ellipse cx="2102.5" cy="507.0625" fill="#84BE84" rx="3" ry="3" style="stroke: #038048; stroke-width: 1.0;"/><text fill="#000000" font-family="sans-serif" font-size="11" lengthAdjust="spacingAndGlyphs" textLength="96" x="2111.5" y="510.2729">pickedUp(): None</text><!--MD5=[60a089dda3d565e3ca7b00a891a9b352]
link Bomb to Cells--><path d="M677.5206,338.7049 C683.8513,342.9726 690.2001,347.0824 696.5,350.9531 C759.0126,389.3612 835.5037,423.9462 889.4726,446.4947 " fill="none" id="Bomb-&gt;Cells" style="stroke: #A80036; stroke-width: 1.0;"/><polygon fill="#A80036" points="894.2966,448.5032,887.5257,441.351,889.6808,446.5812,884.4505,448.7363,894.2966,448.5032" style="stroke: #A80036; stroke-width: 1.0;"/><!--MD5=[2f400c6d530f2d08c56fc45b2a8c1c9f]
link Entity to Cells--><path d="M1218.3674,335.4093 C1212.6976,341.0466 1206.7289,346.3081 1200.5,350.9531 C1138.6155,397.1009 1104.9498,373.4054 1037.5,410.9531 C1026.2162,417.2346 1014.8378,425.0405 1004.3434,432.9836 " fill="none" id="Entity-&gt;Cells" style="stroke: #A80036; stroke-width: 1.0;"/><polygon fill="#A80036" points="1000.2133,436.1508,1009.7892,433.8482,1004.1809,433.1082,1004.9209,427.4999,1000.2133,436.1508" style="stroke: #A80036; stroke-width: 1.0;"/><!--MD5=[94d1b37a35241339b50fbfa51532ebd0]
link Map to Cells--><path d="M319.8935,306.5523 C352.391,322.6191 388.2654,338.7815 422.5,350.9531 C585.3944,408.8677 786.1256,446.2227 889.2374,463.0698 " fill="none" id="Map-&gt;Cells" style="stroke: #A80036; stroke-width: 1.0;"/><polygon fill="#A80036" points="894.3754,463.9054,886.1345,458.5122,889.4403,463.1026,884.8499,466.4084,894.3754,463.9054" style="stroke: #A80036; stroke-width: 1.0;"/><!--MD5=[5bb1f42e2d07b710135aab342d4bdc8f]
reverse link Blocks to BExit--><path d="M1805.8627,301.7135 C1841.2389,339.3006 1886.9056,387.8216 1920.6707,423.697 " fill="none" id="Blocks&lt;-BExit" style="stroke: #A80036; stroke-width: 1.0;"/><polygon fill="none" points="1800.7379,306.4819,1792.1279,287.1203,1810.9327,296.8868,1800.7379,306.4819" style="stroke: #A80036; stroke-width: 1.0;"/><!--MD5=[d650cb591a0ce810e0ccd310f5c88854]
reverse link Entity to TNTMan--><path d="M1207.8947,362.974 C1196.3553,381.8903 1184.9105,400.6517 1174.8168,417.198 " fill="none" id="Entity&lt;-TNTMan" style="stroke: #A80036; stroke-width: 1.0;"/><polygon fill="none" points="1202.0912,359.0459,1218.4826,345.6174,1214.0429,366.3367,1202.0912,359.0459" style="stroke: #A80036; stroke-width: 1.0;"/><!--MD5=[f7c70f88419c44f785a4fb471e9a0606]
reverse link Entity to Enemies--><path d="M1309.7573,370.6428 C1312.9582,384.5034 1316.1049,398.1291 1319.0078,410.6991 " fill="none" id="Entity&lt;-Enemies" style="stroke: #A80036; stroke-width: 1.0;"/><polygon fill="none" points="1302.8954,372.0384,1305.2156,350.9761,1316.5364,368.8881,1302.8954,372.0384" style="stroke: #A80036; stroke-width: 1.0;"/><!--MD5=[195cb0d4d9448e24266a506af8238f7f]
reverse link Blocks to BBreakable--><path d="M1696.684,301.6608 C1663.0062,337.1152 1620.0733,382.3129 1586.6981,417.4487 " fill="none" id="Blocks&lt;-BBreakable" style="stroke: #A80036; stroke-width: 1.0;"/><polygon fill="none" points="1691.6464,296.8001,1710.4959,287.1203,1701.797,306.4421,1691.6464,296.8001" style="stroke: #A80036; stroke-width: 1.0;"/><!--MD5=[5d4d08b275ed2ce138e3e205fdcf0f89]
reverse link Blocks to BUnbreakable--><path d="M1751.5,307.4396 C1751.5,341.9289 1751.5,384.1951 1751.5,417.4487 " fill="none" id="Blocks&lt;-BUnbreakable" style="stroke: #A80036; stroke-width: 1.0;"/><polygon fill="none" points="1744.5001,307.1203,1751.5,287.1203,1758.5001,307.1203,1744.5001,307.1203" style="stroke: #A80036; stroke-width: 1.0;"/><!--MD5=[9c4c29a6e0f3f551d0075d6a141d9eb5]
reverse link Blocks to BKey--><path d="M1833.1319,281.2862 C1899.593,312.8524 1994.9293,360.8337 2073.5,410.9531 C2082.7844,416.8755 2092.3227,423.5952 2101.4473,430.3786 " fill="none" id="Blocks&lt;-BKey" style="stroke: #A80036; stroke-width: 1.0;"/><polygon fill="none" points="1829.8727,287.4887,1814.7646,272.6311,1835.8404,274.8243,1829.8727,287.4887" style="stroke: #A80036; stroke-width: 1.0;"/><!--MD5=[8e12c59ee9a968fad7e8c9e48255b722]
link TNTMan to Buffs--><path d="M1140.5,529.6155 C1140.5,548.7429 1140.5,570.4284 1140.5,590.7484 " fill="none" id="TNTMan-&gt;Buffs" style="stroke: #A80036; stroke-width: 1.0;"/><polygon fill="#A80036" points="1140.5,595.8827,1144.5,586.8827,1140.5,590.8827,1136.5,586.8827,1140.5,595.8827" style="stroke: #A80036; stroke-width: 1.0;"/><!--MD5=[7f401eab735f6e1df4fb9703acaf2fc2]
reverse link Map to Bomb--><path d="M410.457,243.9531 C420.2871,243.9531 430.1173,243.9531 439.9475,243.9531 " fill="none" id="Map&lt;-Bomb" style="stroke: #A80036; stroke-width: 1.0;"/><polygon fill="#A80036" points="405.3164,243.9531,414.3164,247.9531,410.3164,243.9531,414.3164,239.9531,405.3164,243.9531" style="stroke: #A80036; stroke-width: 1.0;"/><!--MD5=[1255aeb3206647148129bfc175350dfd]
link Bomb to Explotion--><path d="M679.1719,243.9531 C689.0521,243.9531 698.9323,243.9531 708.8126,243.9531 " fill="none" id="Bomb-&gt;Explotion" style="stroke: #A80036; stroke-width: 1.0;"/><polygon fill="#A80036" points="713.9793,243.9531,704.9793,239.9531,708.9793,243.9531,704.9793,247.9531,713.9793,243.9531" style="stroke: #A80036; stroke-width: 1.0;"/><!--MD5=[d1166af5fd8c31ab96fa7206318c7c5a]
reverse link Driver to Entity--><path d="M961.7416,56.9908 C1018.8505,64.4916 1126.1444,84.8612 1200.5,136.9531 C1206.7688,141.3449 1212.7508,146.3825 1218.4158,151.8263 " fill="none" id="Driver&lt;-Entity" style="stroke: #A80036; stroke-width: 1.0;"/><polygon fill="#A80036" points="956.7102,56.3463,965.129,61.4574,961.6697,56.9816,966.1455,53.5223,956.7102,56.3463" style="stroke: #A80036; stroke-width: 1.0;"/><!--MD5=[34a406108f30947031288a479ca8e452]
reverse link Driver to Bomb--><path d="M883.2085,63.5459 C836.8262,76.9417 758.2019,102.4834 696.5,136.9531 C689.6498,140.78 682.7779,144.9332 675.9594,149.307 " fill="none" id="Driver&lt;-Bomb" style="stroke: #A80036; stroke-width: 1.0;"/><polygon fill="#A80036" points="888.1479,62.1301,878.3941,60.7649,883.3415,63.5078,880.5985,68.4552,888.1479,62.1301" style="stroke: #A80036; stroke-width: 1.0;"/><!--MD5=[9a5d12322cb9cce21229cabb97fd8dac]
reverse link Driver to Map--><path d="M883.1248,55.6539 C797.4867,62.3683 588.6456,83.3152 422.5,136.9531 C386.9239,148.4384 349.8567,164.8703 316.635,181.4213 " fill="none" id="Driver&lt;-Map" style="stroke: #A80036; stroke-width: 1.0;"/><polygon fill="#A80036" points="888.3403,55.2507,879.0587,51.9564,883.3552,55.6362,879.6754,59.9326,888.3403,55.2507" style="stroke: #A80036; stroke-width: 1.0;"/><!--MD5=[a30aecd5c294d901a842e14336e4e455]
reverse link Driver to Explotion--><path d="M909.2492,82.044 C894.8581,113.6382 871.7192,164.4373 855.1983,200.7074 " fill="none" id="Driver&lt;-Explotion" style="stroke: #A80036; stroke-width: 1.0;"/><polygon fill="#A80036" points="911.4814,77.1434,904.1106,83.6757,909.4088,81.6936,911.3909,86.9919,911.4814,77.1434" style="stroke: #A80036; stroke-width: 1.0;"/><!--MD5=[35536f8740c744d6e8202d42edf77b20]
reverse link Driver to Cells--><path d="M945.7378,81.5244 C956.7814,96.947 968.7947,116.8977 974.5,136.9531 C1004.4298,242.1637 981.5631,373.2194 967.0622,436.2234 " fill="none" id="Driver&lt;-Cells" style="stroke: #A80036; stroke-width: 1.0;"/><polygon fill="#A80036" points="942.6547,77.2982,944.7272,86.9265,945.6014,81.3376,951.1903,82.2118,942.6547,77.2982" style="stroke: #A80036; stroke-width: 1.0;"/><!--MD5=[036716e557c9697eaef5149551dc9e82]
reverse link Driver to Blocks--><path d="M962.0526,59.5102 C1038.9841,72.4945 1213.9887,103.161 1359.5,136.9531 C1476.4901,164.1218 1611.2468,202.4776 1688.3971,225.1247 " fill="none" id="Driver&lt;-Blocks" style="stroke: #A80036; stroke-width: 1.0;"/><polygon fill="#A80036" points="956.6848,58.606,964.8955,64.0452,961.6154,59.4365,966.2241,56.1563,956.6848,58.606" style="stroke: #A80036; stroke-width: 1.0;"/><!--MD5=[564fc53f2a8d24b1908a98c69452a6a9]
link Position to Cells--><path d="M1101.1125,274.9045 C1071.7921,315.4409 1020.2827,386.6541 987.5785,431.8686 " fill="none" id="Position-&gt;Cells" style="stroke: #A80036; stroke-width: 1.0;"/><polygon fill="#A80036" points="984.4737,436.1612,992.9894,431.2131,987.404,432.1099,986.5073,426.5246,984.4737,436.1612" style="stroke: #A80036; stroke-width: 1.0;"/><!--MD5=[44aabad8216c77b8792e23b32c7f33ee]
@startuml
title TNTMan - UML Class Diagram

abstract class Driver{

}
abstract class Cells{
  -size:tuple(2)
  +getSize(): tuple(2)
}
abstract class Position{
  -CellsXY: tuple(2)
}
class Map{
  -size:Cells[n,m]
  +entitiesInBombRange(detonationRange): Entities [0..*]
  +BBreakableInBombRange(detonationRange): BBreakable[0..*]
  +BUnbrealableInBombRange(detonationRange): BUnbreakable[0..*]
  +_init_(n: Int, m: Int)
  +getSize():Cells[n,m]
}




abstract class Entity {
  -hitbox:Cells[2]
  -live:Boolean
  -lifes:Int
  -position:Position
  -speed:Float
  +getSpeed():Float
  +setSpeed():Float
  +getLive():Boolean
  +getLifes():Int
  +setLifes():Int
  +hitBy():Enemies
  +collide():Blocks
  +die():None
}

class TNTMan{
  -buff:Boolean
  +deployBomb(Bomb):None
  +pickUpKey(): None
  +move(Direction): Position
  +position: Position
}


class Enemies{
  -damage:Int
  +getDamage():Int 
  +setDamage(Int):None
  +makeDamage():Int
  +hitTNTMan():None
  +collide(): None
}

class Bomb{
  -hitbox:Cells[2]
  -detonationTime:Float
  -detonationRange:Cells[n,m]
  -position:Cells[2]
  +getPosition():Cells[2]
  +setPosition(Cells[2]):None
  +getDetonationTime():Float
  +setDetonationTime(Float):None
  +getDetonationRange():Cells[n,m]
  +setDetonationRange(Cells[n,m]):None
  +detonate(detRange, detTime):None
}

class Explotion{
  +getDetonationRange(Cells[n,m]): None
  +setDetonationRange(): Cells[n,m]
  +isEntityNear(): Boolean

}

class Buffs{
  -type: String
  -duration: Float
  -active: Boolean
  -position: Cells[2]
  +pickedUp(): Boolean
  +getDuration(): Float
  +getType(): String
}

abstract class Blocks{
  -collision: Boolean
  -hitbox: Cells[2]
  -position: Cells[2]
}

class BBreakable{
  -canBeBroken: Boolean
  -live: Boolean
  +die()
  +getCanBeBroken(): Boolean
  +getLive(): Boolean
}

class BUnbreakable{
  -canBeBroken: Boolean
  -live: Boolean
  +die(): None
  +getCanBeBroken(): Boolean
  +getLive(): Boolean
}

class BExit{
  +die(): None
  +open(Bkey) : None
  -playerGoThrough: Boolean
  -isOpen: Boolean
  
}
class BKey{
  +die(): None
  +pickedUp(): None
  -isPicked: Boolean
}


Bomb - -> Cells
Entity - -> Cells
Map - -> Cells
Blocks <|- - BExit
Entity <|- - TNTMan
Entity <|- - Enemies
Blocks <|- - BBreakable
Blocks <|- - BUnbreakable
Blocks <|- - BKey
TNTMan - -> Buffs
Map <- Bomb
Bomb -> Explotion
Driver <- - Entity
Driver <- - Bomb
Driver <- - Map
Driver <- - Explotion
Driver <- - Cells
Driver <- - Blocks
Position - -> Cells


@endum

PlantUML version 1.2019.10(Fri Sep 13 20:53:03 UTC 2019)
(GPL source distribution)
Java Runtime: OpenJDK Runtime Environment
JVM: OpenJDK 64-Bit Server VM
Java Version: 1.8.0_222-heroku-b10
Operating System: Linux
Default Encoding: UTF-8
Language: en
Country: US
--></g></svg>