<?xml version="1.0" encoding="UTF-8" standalone="no"?><svg xmlns="http://www.w3.org/2000/svg" xmlns:xlink="http://www.w3.org/1999/xlink" contentScriptType="application/ecmascript" contentStyleType="text/css" height="259px" preserveAspectRatio="none" style="width:393px;height:259px;" version="1.1" viewBox="0 0 393 259" width="393px" zoomAndPan="magnify"><defs><filter height="300%" id="fc1ugsp4q62xo" width="300%" x="-1" y="-1"><feGaussianBlur result="blurOut" stdDeviation="2.0"/><feColorMatrix in="blurOut" result="blurOut2" type="matrix" values="0 0 0 0 0 0 0 0 0 0 0 0 0 0 0 0 0 0 .4 0"/><feOffset dx="4.0" dy="4.0" in="blurOut2" result="blurOut3"/><feBlend in="SourceGraphic" in2="blurOut3" mode="normal"/></filter></defs><g><text fill="#000000" font-family="sans-serif" font-size="18" lengthAdjust="spacingAndGlyphs" textLength="153" x="124" y="16.708">Use cases: Player</text><!--MD5=[de2effd8dc5bf946a609466312d0f75f]
entity Player--><ellipse cx="157.5" cy="38.9531" fill="#FEFECE" filter="url(#fc1ugsp4q62xo)" rx="8" ry="8" style="stroke: #A80036; stroke-width: 2.0;"/><path d="M157.5,46.9531 L157.5,73.9531 M144.5,54.9531 L170.5,54.9531 M157.5,73.9531 L144.5,88.9531 M157.5,73.9531 L170.5,88.9531 " fill="none" filter="url(#fc1ugsp4q62xo)" style="stroke: #A80036; stroke-width: 2.0;"/><text fill="#000000" font-family="sans-serif" font-size="14" lengthAdjust="spacingAndGlyphs" textLength="41" x="137" y="108.9482">Player</text><ellipse cx="31.6274" cy="233.4768" fill="#FEFECE" filter="url(#fc1ugsp4q62xo)" rx="25.6274" ry="14.5236" style="stroke: #A80036; stroke-width: 1.5;"/><text fill="#000000" font-family="sans-serif" font-size="14" lengthAdjust="spacingAndGlyphs" textLength="32" x="15.6274" y="238.1252">Start</text><ellipse cx="157.3198" cy="233.4768" fill="#FEFECE" filter="url(#fc1ugsp4q62xo)" rx="34.8198" ry="14.5236" style="stroke: #A80036; stroke-width: 1.5;"/><text fill="#000000" font-family="sans-serif" font-size="14" lengthAdjust="spacingAndGlyphs" textLength="45" x="134.8198" y="238.1252">Initiate</text><ellipse cx="280.5919" cy="233.4768" fill="#FEFECE" filter="url(#fc1ugsp4q62xo)" rx="22.0919" ry="14.5236" style="stroke: #A80036; stroke-width: 1.5;"/><text fill="#000000" font-family="sans-serif" font-size="14" lengthAdjust="spacingAndGlyphs" textLength="27" x="267.0919" y="238.1252">end</text><!--MD5=[39353cd92ba960c69c4d2a9385fee2c7]
link Player to Start--><path d="M136.6591,80.7092 C114.6627,92.5569 80.4706,114.0539 60.5,141.9531 C44.9182,163.7211 37.4725,194.2002 34.0876,213.8859 " fill="none" id="Player-&gt;Start" style="stroke: #A80036; stroke-width: 1.0;"/><polygon fill="#A80036" points="33.2746,218.8909,38.6662,210.6489,34.0765,213.9556,30.7697,209.3659,33.2746,218.8909" style="stroke: #A80036; stroke-width: 1.0;"/><text fill="#000000" font-family="sans-serif" font-size="13" lengthAdjust="spacingAndGlyphs" textLength="84" x="61.5" y="162.52">On the game</text><text fill="#000000" font-family="sans-serif" font-size="13" lengthAdjust="spacingAndGlyphs" textLength="73" x="69" y="177.6528">main menu</text><!--MD5=[1ed42b3a91724024b24546a60214a6ec]
link Player to Initiate--><path d="M155.2448,112.1372 C154.3183,134.8496 153.6413,163.449 154.5,188.9531 C154.771,197.0015 155.3169,205.8548 155.8697,213.5307 " fill="none" id="Player-&gt;Initiate" style="stroke: #A80036; stroke-width: 1.0;"/><polygon fill="#A80036" points="156.2501,218.6324,159.5697,209.3599,155.8782,213.6463,151.5918,209.9548,156.2501,218.6324" style="stroke: #A80036; stroke-width: 1.0;"/><text fill="#000000" font-family="sans-serif" font-size="13" lengthAdjust="spacingAndGlyphs" textLength="81" x="155.5" y="162.52">by executing</text><text fill="#000000" font-family="sans-serif" font-size="13" lengthAdjust="spacingAndGlyphs" textLength="80" x="156" y="177.6528">the program</text><!--MD5=[54c50a7724f7c79f5389595c0d9a87c1]
link Player to end--><path d="M178.194,83.8938 C196.8264,96.8746 223.9097,118.0423 241.5,141.9531 C257.8685,164.2032 269.0083,194.3722 275.0629,213.8767 " fill="none" id="Player-&gt;end" style="stroke: #A80036; stroke-width: 1.0;"/><polygon fill="#A80036" points="276.6359,219.0797,277.8601,209.3072,275.1889,214.2937,270.2024,211.6225,276.6359,219.0797" style="stroke: #A80036; stroke-width: 1.0;"/><text fill="#000000" font-family="sans-serif" font-size="13" lengthAdjust="spacingAndGlyphs" textLength="109" x="269.5" y="155.02">by pressing the x</text><text fill="#000000" font-family="sans-serif" font-size="13" lengthAdjust="spacingAndGlyphs" textLength="115" x="266.5" y="170.1528">on the upper right</text><text fill="#000000" font-family="sans-serif" font-size="13" lengthAdjust="spacingAndGlyphs" textLength="41" x="305.5" y="185.2856">corner</text><!--MD5=[b8eb4191f6b70a740eedee9d716eb31d]
@startuml
title Use cases: Player
skinparam packageStyle rectangle x
Player - -> (Start): On the game\n main menu
Player - -> (Initiate): by executing\nthe program
Player - -> (end): by pressing the x\non the upper right\n corner
@enduml

PlantUML version 1.2019.10(Fri Sep 13 20:53:03 UTC 2019)
(GPL source distribution)
Java Runtime: OpenJDK Runtime Environment
JVM: OpenJDK 64-Bit Server VM
Java Version: 1.8.0_222-heroku-b10
Operating System: Linux
Default Encoding: UTF-8
Language: en
Country: US
--></g></svg>