<?xml version="1.0" encoding="UTF-8" standalone="no"?><svg xmlns="http://www.w3.org/2000/svg" xmlns:xlink="http://www.w3.org/1999/xlink" contentScriptType="application/ecmascript" contentStyleType="text/css" height="917px" preserveAspectRatio="none" style="width:994px;height:917px;" version="1.1" viewBox="0 0 994 917" width="994px" zoomAndPan="magnify"><defs><filter height="300%" id="fh6u39qe8q5or" width="300%" x="-1" y="-1"><feGaussianBlur result="blurOut" stdDeviation="2.0"/><feColorMatrix in="blurOut" result="blurOut2" type="matrix" values="0 0 0 0 0 0 0 0 0 0 0 0 0 0 0 0 0 0 .4 0"/><feOffset dx="4.0" dy="4.0" in="blurOut2" result="blurOut3"/><feBlend in="SourceGraphic" in2="blurOut3" mode="normal"/></filter></defs><g><ellipse cx="509.5" cy="20" fill="#000000" filter="url(#fh6u39qe8q5or)" rx="10" ry="10" style="stroke: none; stroke-width: 1.0;"/><rect fill="#FEFECE" filter="url(#fh6u39qe8q5or)" height="33.9688" rx="12.5" ry="12.5" style="stroke: #A80036; stroke-width: 1.5;" width="78" x="470.5" y="50"/><text fill="#000000" font-family="sans-serif" font-size="12" lengthAdjust="spacingAndGlyphs" textLength="58" x="480.5" y="71.1387">clickStart</text><rect fill="#FEFECE" filter="url(#fh6u39qe8q5or)" height="33.9688" rx="12.5" ry="12.5" style="stroke: #A80036; stroke-width: 1.5;" width="122" x="448.5" y="103.9688"/><text fill="#000000" font-family="sans-serif" font-size="12" lengthAdjust="spacingAndGlyphs" textLength="102" x="458.5" y="125.1074">spawnCharacter</text><rect fill="#FEFECE" filter="url(#fh6u39qe8q5or)" height="33.9688" rx="12.5" ry="12.5" style="stroke: #A80036; stroke-width: 1.5;" width="53" x="483" y="218.7422"/><text fill="#000000" font-family="sans-serif" font-size="12" lengthAdjust="spacingAndGlyphs" textLength="33" x="493" y="239.8809">move</text><rect fill="#FEFECE" filter="url(#fh6u39qe8q5or)" height="33.9688" rx="12.5" ry="12.5" style="stroke: #A80036; stroke-width: 1.5;" width="110" x="454.5" y="272.7109"/><text fill="#000000" font-family="sans-serif" font-size="12" lengthAdjust="spacingAndGlyphs" textLength="90" x="464.5" y="293.8496">findSomething</text><rect fill="#000000" filter="url(#fh6u39qe8q5or)" height="6" rx="2.5" ry="2.5" style="stroke: #000000; stroke-width: 1.0;" width="911" x="45" y="326.6797"/><rect fill="#FEFECE" filter="url(#fh6u39qe8q5or)" height="33.9688" rx="12.5" ry="12.5" style="stroke: #A80036; stroke-width: 1.5;" width="74" x="181" y="396.5977"/><text fill="#000000" font-family="sans-serif" font-size="12" lengthAdjust="spacingAndGlyphs" textLength="54" x="191" y="417.7363">obstacle</text><polygon fill="#FEFECE" filter="url(#fh6u39qe8q5or)" points="199,465.5664,237,465.5664,249,477.5664,237,489.5664,199,489.5664,187,477.5664,199,465.5664" style="stroke: #A80036; stroke-width: 1.5;"/><text fill="#000000" font-family="sans-serif" font-size="11" lengthAdjust="spacingAndGlyphs" textLength="38" x="199" y="481.3745">break?</text><text fill="#000000" font-family="sans-serif" font-size="11" lengthAdjust="spacingAndGlyphs" textLength="20" x="167" y="474.9722">yes</text><text fill="#000000" font-family="sans-serif" font-size="11" lengthAdjust="spacingAndGlyphs" textLength="14" x="249" y="474.9722">no</text><rect fill="#FEFECE" filter="url(#fh6u39qe8q5or)" height="33.9688" rx="12.5" ry="12.5" style="stroke: #A80036; stroke-width: 1.5;" width="76" x="80.5" y="499.5664"/><text fill="#000000" font-family="sans-serif" font-size="12" lengthAdjust="spacingAndGlyphs" textLength="56" x="90.5" y="520.7051">putBomb</text><rect fill="#FEFECE" filter="url(#fh6u39qe8q5or)" height="33.9688" rx="12.5" ry="12.5" style="stroke: #A80036; stroke-width: 1.5;" width="39" x="99" y="616.9375"/><text fill="#000000" font-family="sans-serif" font-size="12" lengthAdjust="spacingAndGlyphs" textLength="19" x="109" y="638.0762">die</text><polygon fill="#FEFECE" filter="url(#fh6u39qe8q5or)" points="69,568.5352,168,568.5352,180,580.5352,168,592.5352,69,592.5352,57,580.5352,69,568.5352" style="stroke: #A80036; stroke-width: 1.5;"/><text fill="#000000" font-family="sans-serif" font-size="11" lengthAdjust="spacingAndGlyphs" textLength="30" x="122.5" y="602.7456">False</text><text fill="#000000" font-family="sans-serif" font-size="11" lengthAdjust="spacingAndGlyphs" textLength="99" x="69" y="584.3433">moveOutOfRange</text><text fill="#000000" font-family="sans-serif" font-size="11" lengthAdjust="spacingAndGlyphs" textLength="26" x="180" y="577.9409">True</text><polygon fill="#FEFECE" filter="url(#fh6u39qe8q5or)" points="118.5,675.3086,130.5,687.3086,118.5,699.3086,106.5,687.3086,118.5,675.3086" style="stroke: #A80036; stroke-width: 1.5;"/><rect fill="#FEFECE" filter="url(#fh6u39qe8q5or)" height="33.9688" rx="12.5" ry="12.5" style="stroke: #A80036; stroke-width: 1.5;" width="211" x="212" y="499.5664"/><text fill="#000000" font-family="sans-serif" font-size="12" lengthAdjust="spacingAndGlyphs" textLength="191" x="222" y="520.7051">moveTowardsDiferentDirection</text><polygon fill="#FEFECE" filter="url(#fh6u39qe8q5or)" points="218,705.3086,230,717.3086,218,729.3086,206,717.3086,218,705.3086" style="stroke: #A80036; stroke-width: 1.5;"/><rect fill="#FEFECE" filter="url(#fh6u39qe8q5or)" height="33.9688" rx="12.5" ry="12.5" style="stroke: #A80036; stroke-width: 1.5;" width="61" x="686" y="352.6797"/><text fill="#000000" font-family="sans-serif" font-size="12" lengthAdjust="spacingAndGlyphs" textLength="41" x="696" y="373.8184">enemy</text><polygon fill="#FEFECE" filter="url(#fh6u39qe8q5or)" points="618.5,446.6484,642.5,446.6484,654.5,458.6484,642.5,470.6484,618.5,470.6484,606.5,458.6484,618.5,446.6484" style="stroke: #A80036; stroke-width: 1.5;"/><text fill="#000000" font-family="sans-serif" font-size="11" lengthAdjust="spacingAndGlyphs" textLength="20" x="634.5" y="480.8589">yes</text><text fill="#000000" font-family="sans-serif" font-size="11" lengthAdjust="spacingAndGlyphs" textLength="21" x="620" y="462.4565">kill?</text><polygon fill="#FEFECE" filter="url(#fh6u39qe8q5or)" points="605,503.4531,656,503.4531,668,515.4531,656,527.4531,605,527.4531,593,515.4531,605,503.4531" style="stroke: #A80036; stroke-width: 1.5;"/><text fill="#000000" font-family="sans-serif" font-size="11" lengthAdjust="spacingAndGlyphs" textLength="51" x="605" y="519.2612">putBomb</text><text fill="#000000" font-family="sans-serif" font-size="11" lengthAdjust="spacingAndGlyphs" textLength="20" x="573" y="512.8589">yes</text><text fill="#000000" font-family="sans-serif" font-size="11" lengthAdjust="spacingAndGlyphs" textLength="14" x="668" y="512.8589">no</text><rect fill="#FEFECE" filter="url(#fh6u39qe8q5or)" height="33.9688" rx="12.5" ry="12.5" style="stroke: #A80036; stroke-width: 1.5;" width="39" x="512" y="585.8555"/><text fill="#000000" font-family="sans-serif" font-size="12" lengthAdjust="spacingAndGlyphs" textLength="19" x="522" y="606.9941">die</text><polygon fill="#FEFECE" filter="url(#fh6u39qe8q5or)" points="483,537.4531,580,537.4531,592,549.4531,580,561.4531,483,561.4531,471,549.4531,483,537.4531" style="stroke: #A80036; stroke-width: 1.5;"/><text fill="#000000" font-family="sans-serif" font-size="11" lengthAdjust="spacingAndGlyphs" textLength="30" x="535.5" y="571.6636">False</text><text fill="#000000" font-family="sans-serif" font-size="11" lengthAdjust="spacingAndGlyphs" textLength="97" x="483" y="553.2612">moveOutofRange</text><text fill="#000000" font-family="sans-serif" font-size="11" lengthAdjust="spacingAndGlyphs" textLength="26" x="592" y="546.8589">True</text><polygon fill="#FEFECE" filter="url(#fh6u39qe8q5or)" points="531.5,644.2266,543.5,656.2266,531.5,668.2266,519.5,656.2266,531.5,644.2266" style="stroke: #A80036; stroke-width: 1.5;"/><rect fill="#FEFECE" filter="url(#fh6u39qe8q5or)" height="33.9688" rx="12.5" ry="12.5" style="stroke: #A80036; stroke-width: 1.5;" width="211" x="624" y="537.4531"/><text fill="#000000" font-family="sans-serif" font-size="12" lengthAdjust="spacingAndGlyphs" textLength="191" x="634" y="558.5918">moveTowardsDiferentDirection</text><polygon fill="#FEFECE" filter="url(#fh6u39qe8q5or)" points="630.5,674.2266,642.5,686.2266,630.5,698.2266,618.5,686.2266,630.5,674.2266" style="stroke: #A80036; stroke-width: 1.5;"/><polygon fill="#FEFECE" filter="url(#fh6u39qe8q5or)" points="867,446.6484,900,446.6484,912,458.6484,900,470.6484,867,470.6484,855,458.6484,867,446.6484" style="stroke: #A80036; stroke-width: 1.5;"/><text fill="#000000" font-family="sans-serif" font-size="11" lengthAdjust="spacingAndGlyphs" textLength="20" x="887.5" y="480.8589">yes</text><text fill="#000000" font-family="sans-serif" font-size="11" lengthAdjust="spacingAndGlyphs" textLength="33" x="867" y="462.4565">getHit</text><text fill="#000000" font-family="sans-serif" font-size="11" lengthAdjust="spacingAndGlyphs" textLength="14" x="912" y="456.0542">no</text><rect fill="#FEFECE" filter="url(#fh6u39qe8q5or)" height="33.9688" rx="12.5" ry="12.5" style="stroke: #A80036; stroke-width: 1.5;" width="39" x="864" y="503.4531"/><text fill="#000000" font-family="sans-serif" font-size="12" lengthAdjust="spacingAndGlyphs" textLength="19" x="874" y="524.5918">die</text><rect fill="#000000" filter="url(#fh6u39qe8q5or)" height="6" rx="2.5" ry="2.5" style="stroke: #000000; stroke-width: 1.0;" width="911" x="45" y="769.3086"/><rect fill="#FEFECE" filter="url(#fh6u39qe8q5or)" height="33.9688" rx="12.5" ry="12.5" style="stroke: #A80036; stroke-width: 1.5;" width="184" x="417.5" y="795.3086"/><text fill="#000000" font-family="sans-serif" font-size="12" lengthAdjust="spacingAndGlyphs" textLength="164" x="427.5" y="816.4473">encountersNextLevelBlock</text><rect fill="#FEFECE" filter="url(#fh6u39qe8q5or)" height="33.9688" rx="12.5" ry="12.5" style="stroke: #A80036; stroke-width: 1.5;" width="81" x="469" y="849.2773"/><text fill="#000000" font-family="sans-serif" font-size="12" lengthAdjust="spacingAndGlyphs" textLength="61" x="479" y="870.416">PassLevel</text><polygon fill="#FEFECE" filter="url(#fh6u39qe8q5or)" points="491.5,157.9375,527.5,157.9375,539.5,169.9375,527.5,181.9375,491.5,181.9375,479.5,169.9375,491.5,157.9375" style="stroke: #A80036; stroke-width: 1.5;"/><text fill="#000000" font-family="sans-serif" font-size="11" lengthAdjust="spacingAndGlyphs" textLength="26" x="513.5" y="192.1479">alive</text><text fill="#000000" font-family="sans-serif" font-size="11" lengthAdjust="spacingAndGlyphs" textLength="36" x="491.5" y="173.7456">status</text><text fill="#000000" font-family="sans-serif" font-size="11" lengthAdjust="spacingAndGlyphs" textLength="28" x="451.5" y="167.3433">dead</text><ellipse cx="24" cy="216.9375" fill="#FFFFFF" filter="url(#fh6u39qe8q5or)" rx="11" ry="11" style="stroke: #000000; stroke-width: 1.0;"/><ellipse cx="24" cy="216.9375" fill="#000000" rx="6" ry="6" style="stroke: #7F7F7F; stroke-width: 1.0;"/><line style="stroke: #A80036; stroke-width: 1.5;" x1="509.5" x2="509.5" y1="30" y2="50"/><polygon fill="#A80036" points="505.5,40,509.5,50,513.5,40,509.5,44" style="stroke: #A80036; stroke-width: 1.0;"/><line style="stroke: #A80036; stroke-width: 1.5;" x1="509.5" x2="509.5" y1="83.9688" y2="103.9688"/><polygon fill="#A80036" points="505.5,93.9688,509.5,103.9688,513.5,93.9688,509.5,97.9688" style="stroke: #A80036; stroke-width: 1.0;"/><line style="stroke: #A80036; stroke-width: 1.5;" x1="509.5" x2="509.5" y1="252.7109" y2="272.7109"/><polygon fill="#A80036" points="505.5,262.7109,509.5,272.7109,513.5,262.7109,509.5,266.7109" style="stroke: #A80036; stroke-width: 1.0;"/><line style="stroke: #A80036; stroke-width: 1.5;" x1="118.5" x2="118.5" y1="592.5352" y2="616.9375"/><polygon fill="#A80036" points="114.5,606.9375,118.5,616.9375,122.5,606.9375,118.5,610.9375" style="stroke: #A80036; stroke-width: 1.0;"/><line style="stroke: #A80036; stroke-width: 1.5;" x1="180" x2="192" y1="580.5352" y2="580.5352"/><polygon fill="#A80036" points="188,623.9219,192,633.9219,196,623.9219,192,627.9219" style="stroke: #A80036; stroke-width: 1.5;"/><line style="stroke: #A80036; stroke-width: 1.5;" x1="192" x2="192" y1="580.5352" y2="687.3086"/><line style="stroke: #A80036; stroke-width: 1.5;" x1="192" x2="130.5" y1="687.3086" y2="687.3086"/><polygon fill="#A80036" points="140.5,683.3086,130.5,687.3086,140.5,691.3086,136.5,687.3086" style="stroke: #A80036; stroke-width: 1.0;"/><line style="stroke: #A80036; stroke-width: 1.5;" x1="118.5" x2="118.5" y1="650.9063" y2="675.3086"/><polygon fill="#A80036" points="114.5,665.3086,118.5,675.3086,122.5,665.3086,118.5,669.3086" style="stroke: #A80036; stroke-width: 1.0;"/><line style="stroke: #A80036; stroke-width: 1.5;" x1="118.5" x2="118.5" y1="533.5352" y2="568.5352"/><polygon fill="#A80036" points="114.5,558.5352,118.5,568.5352,122.5,558.5352,118.5,562.5352" style="stroke: #A80036; stroke-width: 1.0;"/><line style="stroke: #A80036; stroke-width: 1.5;" x1="187" x2="118.5" y1="477.5664" y2="477.5664"/><line style="stroke: #A80036; stroke-width: 1.5;" x1="118.5" x2="118.5" y1="477.5664" y2="499.5664"/><polygon fill="#A80036" points="114.5,489.5664,118.5,499.5664,122.5,489.5664,118.5,493.5664" style="stroke: #A80036; stroke-width: 1.0;"/><line style="stroke: #A80036; stroke-width: 1.5;" x1="249" x2="317.5" y1="477.5664" y2="477.5664"/><line style="stroke: #A80036; stroke-width: 1.5;" x1="317.5" x2="317.5" y1="477.5664" y2="499.5664"/><polygon fill="#A80036" points="313.5,489.5664,317.5,499.5664,321.5,489.5664,317.5,493.5664" style="stroke: #A80036; stroke-width: 1.0;"/><line style="stroke: #A80036; stroke-width: 1.5;" x1="118.5" x2="118.5" y1="699.3086" y2="717.3086"/><line style="stroke: #A80036; stroke-width: 1.5;" x1="118.5" x2="206" y1="717.3086" y2="717.3086"/><polygon fill="#A80036" points="196,713.3086,206,717.3086,196,721.3086,200,717.3086" style="stroke: #A80036; stroke-width: 1.0;"/><line style="stroke: #A80036; stroke-width: 1.5;" x1="317.5" x2="317.5" y1="533.5352" y2="717.3086"/><line style="stroke: #A80036; stroke-width: 1.5;" x1="317.5" x2="230" y1="717.3086" y2="717.3086"/><polygon fill="#A80036" points="240,713.3086,230,717.3086,240,721.3086,236,717.3086" style="stroke: #A80036; stroke-width: 1.0;"/><line style="stroke: #A80036; stroke-width: 1.5;" x1="218" x2="218" y1="430.5664" y2="465.5664"/><polygon fill="#A80036" points="214,455.5664,218,465.5664,222,455.5664,218,459.5664" style="stroke: #A80036; stroke-width: 1.0;"/><line style="stroke: #A80036; stroke-width: 1.5;" x1="531.5" x2="531.5" y1="561.4531" y2="585.8555"/><polygon fill="#A80036" points="527.5,575.8555,531.5,585.8555,535.5,575.8555,531.5,579.8555" style="stroke: #A80036; stroke-width: 1.0;"/><line style="stroke: #A80036; stroke-width: 1.5;" x1="592" x2="604" y1="549.4531" y2="549.4531"/><polygon fill="#A80036" points="600,592.8398,604,602.8398,608,592.8398,604,596.8398" style="stroke: #A80036; stroke-width: 1.5;"/><line style="stroke: #A80036; stroke-width: 1.5;" x1="604" x2="604" y1="549.4531" y2="656.2266"/><line style="stroke: #A80036; stroke-width: 1.5;" x1="604" x2="543.5" y1="656.2266" y2="656.2266"/><polygon fill="#A80036" points="553.5,652.2266,543.5,656.2266,553.5,660.2266,549.5,656.2266" style="stroke: #A80036; stroke-width: 1.0;"/><line style="stroke: #A80036; stroke-width: 1.5;" x1="531.5" x2="531.5" y1="619.8242" y2="644.2266"/><polygon fill="#A80036" points="527.5,634.2266,531.5,644.2266,535.5,634.2266,531.5,638.2266" style="stroke: #A80036; stroke-width: 1.0;"/><line style="stroke: #A80036; stroke-width: 1.5;" x1="593" x2="531.5" y1="515.4531" y2="515.4531"/><line style="stroke: #A80036; stroke-width: 1.5;" x1="531.5" x2="531.5" y1="515.4531" y2="537.4531"/><polygon fill="#A80036" points="527.5,527.4531,531.5,537.4531,535.5,527.4531,531.5,531.4531" style="stroke: #A80036; stroke-width: 1.0;"/><line style="stroke: #A80036; stroke-width: 1.5;" x1="668" x2="729.5" y1="515.4531" y2="515.4531"/><line style="stroke: #A80036; stroke-width: 1.5;" x1="729.5" x2="729.5" y1="515.4531" y2="537.4531"/><polygon fill="#A80036" points="725.5,527.4531,729.5,537.4531,733.5,527.4531,729.5,531.4531" style="stroke: #A80036; stroke-width: 1.0;"/><line style="stroke: #A80036; stroke-width: 1.5;" x1="531.5" x2="531.5" y1="668.2266" y2="686.2266"/><line style="stroke: #A80036; stroke-width: 1.5;" x1="531.5" x2="618.5" y1="686.2266" y2="686.2266"/><polygon fill="#A80036" points="608.5,682.2266,618.5,686.2266,608.5,690.2266,612.5,686.2266" style="stroke: #A80036; stroke-width: 1.0;"/><line style="stroke: #A80036; stroke-width: 1.5;" x1="729.5" x2="729.5" y1="571.4219" y2="686.2266"/><line style="stroke: #A80036; stroke-width: 1.5;" x1="729.5" x2="642.5" y1="686.2266" y2="686.2266"/><polygon fill="#A80036" points="652.5,682.2266,642.5,686.2266,652.5,690.2266,648.5,686.2266" style="stroke: #A80036; stroke-width: 1.0;"/><line style="stroke: #A80036; stroke-width: 1.5;" x1="630.5" x2="630.5" y1="470.6484" y2="503.4531"/><polygon fill="#A80036" points="626.5,493.4531,630.5,503.4531,634.5,493.4531,630.5,497.4531" style="stroke: #A80036; stroke-width: 1.0;"/><line style="stroke: #A80036; stroke-width: 1.5;" x1="630.5" x2="630.5" y1="698.2266" y2="749.3086"/><polygon fill="#A80036" points="626.5,739.3086,630.5,749.3086,634.5,739.3086,630.5,743.3086" style="stroke: #A80036; stroke-width: 1.0;"/><line style="stroke: #A80036; stroke-width: 1.5;" x1="883.5" x2="883.5" y1="470.6484" y2="503.4531"/><polygon fill="#A80036" points="879.5,493.4531,883.5,503.4531,887.5,493.4531,883.5,497.4531" style="stroke: #A80036; stroke-width: 1.0;"/><line style="stroke: #A80036; stroke-width: 1.5;" x1="883.5" x2="883.5" y1="537.4219" y2="749.3086"/><polygon fill="#A80036" points="879.5,739.3086,883.5,749.3086,887.5,739.3086,883.5,743.3086" style="stroke: #A80036; stroke-width: 1.0;"/><line style="stroke: #A80036; stroke-width: 1.5;" x1="654.5" x2="855" y1="458.6484" y2="458.6484"/><polygon fill="#A80036" points="845,454.6484,855,458.6484,845,462.6484,849,458.6484" style="stroke: #A80036; stroke-width: 1.0;"/><line style="stroke: #A80036; stroke-width: 1.5;" x1="716.5" x2="716.5" y1="386.6484" y2="421.6484"/><line style="stroke: #A80036; stroke-width: 1.5;" x1="716.5" x2="630.5" y1="421.6484" y2="421.6484"/><line style="stroke: #A80036; stroke-width: 1.5;" x1="630.5" x2="630.5" y1="421.6484" y2="446.6484"/><polygon fill="#A80036" points="626.5,436.6484,630.5,446.6484,634.5,436.6484,630.5,440.6484" style="stroke: #A80036; stroke-width: 1.0;"/><line style="stroke: #A80036; stroke-width: 1.5;" x1="912" x2="940" y1="458.6484" y2="458.6484"/><line style="stroke: #A80036; stroke-width: 1.5;" x1="940" x2="940" y1="458.6484" y2="749.3086"/><polygon fill="#A80036" points="936,739.3086,940,749.3086,944,739.3086,940,743.3086" style="stroke: #A80036; stroke-width: 1.0;"/><line style="stroke: #A80036; stroke-width: 1.5;" x1="630.5" x2="940" y1="749.3086" y2="749.3086"/><line style="stroke: #A80036; stroke-width: 1.5;" x1="218" x2="218" y1="332.6797" y2="396.5977"/><polygon fill="#A80036" points="214,386.5977,218,396.5977,222,386.5977,218,390.5977" style="stroke: #A80036; stroke-width: 1.0;"/><line style="stroke: #A80036; stroke-width: 1.5;" x1="716.5" x2="716.5" y1="332.6797" y2="352.6797"/><polygon fill="#A80036" points="712.5,342.6797,716.5,352.6797,720.5,342.6797,716.5,346.6797" style="stroke: #A80036; stroke-width: 1.0;"/><line style="stroke: #A80036; stroke-width: 1.5;" x1="218" x2="218" y1="729.3086" y2="769.3086"/><polygon fill="#A80036" points="214,759.3086,218,769.3086,222,759.3086,218,763.3086" style="stroke: #A80036; stroke-width: 1.0;"/><line style="stroke: #A80036; stroke-width: 1.5;" x1="716.5" x2="716.5" y1="749.3086" y2="769.3086"/><polygon fill="#A80036" points="712.5,759.3086,716.5,769.3086,720.5,759.3086,716.5,763.3086" style="stroke: #A80036; stroke-width: 1.0;"/><line style="stroke: #A80036; stroke-width: 1.5;" x1="509.5" x2="509.5" y1="306.6797" y2="326.6797"/><polygon fill="#A80036" points="505.5,316.6797,509.5,326.6797,513.5,316.6797,509.5,320.6797" style="stroke: #A80036; stroke-width: 1.0;"/><line style="stroke: #A80036; stroke-width: 1.5;" x1="509.5" x2="509.5" y1="775.3086" y2="795.3086"/><polygon fill="#A80036" points="505.5,785.3086,509.5,795.3086,513.5,785.3086,509.5,789.3086" style="stroke: #A80036; stroke-width: 1.0;"/><line style="stroke: #A80036; stroke-width: 1.5;" x1="509.5" x2="509.5" y1="829.2773" y2="849.2773"/><polygon fill="#A80036" points="505.5,839.2773,509.5,849.2773,513.5,839.2773,509.5,843.2773" style="stroke: #A80036; stroke-width: 1.0;"/><line style="stroke: #A80036; stroke-width: 1.5;" x1="509.5" x2="509.5" y1="181.9375" y2="218.7422"/><polygon fill="#A80036" points="505.5,208.7422,509.5,218.7422,513.5,208.7422,509.5,212.7422" style="stroke: #A80036; stroke-width: 1.0;"/><line style="stroke: #A80036; stroke-width: 1.5;" x1="509.5" x2="509.5" y1="883.2461" y2="893.2461"/><line style="stroke: #A80036; stroke-width: 1.5;" x1="509.5" x2="968" y1="893.2461" y2="893.2461"/><polygon fill="#A80036" points="964,554.5508,968,544.5508,972,554.5508,968,550.5508" style="stroke: #A80036; stroke-width: 1.5;"/><line style="stroke: #A80036; stroke-width: 1.5;" x1="968" x2="968" y1="169.9375" y2="893.2461"/><line style="stroke: #A80036; stroke-width: 1.5;" x1="968" x2="539.5" y1="169.9375" y2="169.9375"/><polygon fill="#A80036" points="549.5,165.9375,539.5,169.9375,549.5,173.9375,545.5,169.9375" style="stroke: #A80036; stroke-width: 1.0;"/><line style="stroke: #A80036; stroke-width: 1.5;" x1="479.5" x2="24" y1="169.9375" y2="169.9375"/><line style="stroke: #A80036; stroke-width: 1.5;" x1="24" x2="24" y1="169.9375" y2="205.9375"/><polygon fill="#A80036" points="20,195.9375,24,205.9375,28,195.9375,24,199.9375" style="stroke: #A80036; stroke-width: 1.0;"/><line style="stroke: #A80036; stroke-width: 1.5;" x1="509.5" x2="509.5" y1="137.9375" y2="157.9375"/><polygon fill="#A80036" points="505.5,147.9375,509.5,157.9375,513.5,147.9375,509.5,151.9375" style="stroke: #A80036; stroke-width: 1.0;"/><!--MD5=[bdb2669862fa8099d3dc77d93d7d2c8c]
@startuml
start
        :clickStart;
        :spawnCharacter;
        while (status) is (alive)
        :move;
        :findSomething;
        fork
                :obstacle;
                if (break?) then (yes)
                        :putBomb;
                        if (moveOutOfRange) then (True)
                        else (False)
                                :die;
                        endif
                else (no)
                :moveTowardsDiferentDirection;
        endif
        fork again
                :enemy;
    if (kill?) then (yes)
                        if (putBomb) then (yes)
                          if (moveOutofRange) then (True)
                                else (False)
                                  :die;
                          endif
                        else (no)
                                :moveTowardsDiferentDirection;
    endif
      elseif (getHit) then (yes)
                                :die;
                        else (no)
    endif


end fork
        :encountersNextLevelBlock;
        :PassLevel;
        endwhile (dead)
        stop
@enduml

PlantUML version 1.2019.11(Sun Sep 22 10:02:15 UTC 2019)
(GPL source distribution)
Java Runtime: OpenJDK Runtime Environment
JVM: OpenJDK 64-Bit Server VM
Java Version: 1.8.0_222-heroku-b10
Operating System: Linux
Default Encoding: UTF-8
Language: en
Country: US
--></g></svg>